<?xml version="1.0" encoding="UTF-8" standalone="no"?>
<!-- Generator: visioncortex VTracer 0.6.12 -->

<svg
   version="1.1"
   width="940"
   height="330"
   id="svg132"
   sodipodi:docname="logo.svg"
   inkscape:version="1.4.4 (dcaf3e7d9e, 2026-05-05)"
   xmlns:inkscape="http://www.inkscape.org/namespaces/inkscape"
   xmlns:sodipodi="http://sodipodi.sourceforge.net/DTD/sodipodi-0.dtd"
   xmlns="http://www.w3.org/2000/svg"
   xmlns:svg="http://www.w3.org/2000/svg">
  <defs
     id="defs132" />
  <sodipodi:namedview
     id="namedview132"
     pagecolor="#ffffff"
     bordercolor="#171817"
     borderopacity="0.25"
     inkscape:showpageshadow="2"
     inkscape:pageopacity="0.0"
     inkscape:pagecheckerboard="0"
     inkscape:deskcolor="#d1d1d1"
     inkscape:zoom="0.71875"
     inkscape:cx="678.95652"
     inkscape:cy="262.26087"
     inkscape:window-width="1504"
     inkscape:window-height="861"
     inkscape:window-x="26"
     inkscape:window-y="23"
     inkscape:window-maximized="0"
     inkscape:current-layer="svg132" />
  <path
     d="m 0,0 c 310.19999,0 620.39999,0 940,0 0,108.90001 0,217.79999 0,330 -310.20001,0 -620.40001,0 -940,0 C 0,221.09999 0,112.20001 0,0 Z"
     fill="#171817"
     id="path1"
     style="stroke-width:0.538248" />
  <path
     d="m 236.99999,24.56522 c 2.12,0.38 2.12,0.38 4,1 -0.24,0.28 -0.24,0.28 -1.47,1.7 -8,9.56 -14.8,19.98 -17.53,32.3 0.68,-0.54 1.35,-1.09 2.05,-1.64 0.89,-0.72 1.78,-1.44 2.7,-2.17 0.44,-0.36 0.44,-0.36 2.67,-2.15 2.17,-1.72 4.36,-3.39 6.58,-5.04 0.66,0.33 1.32,0.66 2,1 -0.87,0.79 -1.74,1.57 -2.63,2.38 -16.19,14.7 -16.19,14.7 -16.75,20.56 0.13,1.01 0.25,2.02 0.38,3.06 1.32,-1.32 2.64,-2.64 4,-4 -1.29,3.41 -2.82,6.47 -4.62,9.62 -2.8,5.48 -3.08,10.33 -2.38,16.380003 0.33,0.99 0.66,1.98 1,2.999997 -0.67,1.67 -1.33,3.33 -2,5 -0.2,2.89 -0.2,2.89 -0.12,5.81 0.01,0.98 0.03,1.95 0.05,2.96 0.02,0.74 0.05,1.47 0.07,2.23 0.66,0 1.32,0 2,0 0.33,-0.66 0.33,-0.66 2,-4 -0.07,0.28 -0.07,0.28 -0.44,1.72 -0.18,0.77 -0.37,1.55 -0.56,2.34 -0.19,0.76 -0.37,1.51 -0.56,2.29 -1.06,6.43 -0.11,11.91 1.56,18.09 0.19,0.73 0.38,1.46 0.58,2.21 0.46,1.79 0.94,3.57 1.42,5.35 0.33,-1.65 0.66,-3.3 1,-5 0.66,0.33 1.32,0.66 2,1 0.41,2.07 0.41,2.07 0.62,4.56 0.04,0.42 0.04,0.42 0.23,2.51 0.05,0.63 0.1,1.27 0.15,1.93 7.26,-2.55 14.34,-5.43 21.25,-8.81 0.66,-0.3 1.31,-0.59 1.99,-0.9 1.84,-0.93 1.84,-0.93 4.76,-3.29 0.87,-2.79 0.94,-5.03 1,-8 0.66,0.33 1.32,0.66 2,1 0,0.99 0,1.98 0,3 0.66,0 1.32,0 2,0 0.12,-0.38 0.12,-0.38 0.75,-2.31 1.36,-2.93 2.57,-3.99 5.25,-5.69 0.33,0.99 0.66,1.98 1,3 0.61,-0.43 1.23,-0.87 1.86,-1.31 0.81,-0.56 1.62,-1.12 2.45,-1.69 0.8,-0.56 1.6,-1.11 2.43,-1.69 2.26,-1.31 2.26,-1.31 5.26,-1.31 -1.14,2.29 -2.3,4.49 -3.62,6.69 -1.98,4.75 -2.23,9.41 -0.77,14.39 0.86,2.07 1.81,4.05 2.83,6.04 0.35,0.73 0.71,1.45 1.07,2.19 4.27,8.54 9.19,16.75 14.49,24.69 -0.06,-0.61 -0.12,-1.21 -0.18,-1.84 -0.18,-1.77 -0.36,-3.55 -0.53,-5.33 -0.18,-1.73 -0.37,-3.46 -0.58,-5.19 -0.89,-7.55 -0.8,-15.06 -0.71,-22.64 0.82,-0.16 0.82,-0.16 5,-1 0.99,2.97 1.98,5.94 3,9 0.23,-1.19 0.46,-2.39 0.7,-3.62 3.1,-15.4 7.84,-23.56 19.3,-34.38 1,-1 2.01,-1.99 3,-3 -0.66,-0.09 -1.32,-0.17 -2,-0.26 -3.99,-0.98 -7.4,-2.71 -11.06,-4.55 -0.71,-0.35 -1.42,-0.69 -2.15,-1.04 -3.88,-1.949997 -6.9,-3.809997 -9.79,-7.149997 0.68,0.28 1.37,0.55 2.07,0.84 3.24,1.28 6.49,2.54 9.74,3.78 1.16,0.45 2.33,0.899997 3.52,1.359997 0.88,0.33 1.76,0.67 2.67,1.02 -0.46,-0.51 -0.92,-1.02 -1.39,-1.54 -3.56,-3.989997 -6.78,-7.93 -9.61,-12.46 4.59,1.49 7.44,3.85 11,7.000003 -0.66,-0.99 -1.32,-1.980003 -2,-3.000003 -0.19,-2.62 -0.19,-2.62 0,-5 1,-1 1,-1 3.56,-1.06 0.81,0.02 1.61,0.04 2.44,0.06 0.33,0.66 0.66,1.32 1,2 -1.65,0 -3.3,0 -5,0 3.03,7.300003 8.06,9.750003 15,13 2.37,0.73 4.61,1.26 7.06,1.61 2.23,0.45 3.96,1.31 5.94,2.39 0.66,-0.66 0.66,-0.66 4,-4 0.66,0.33 1.32,0.66 2,1 -0.5,0.6 -0.99,1.2 -1.5,1.81 -1.5,2.19 -1.5,2.19 -1.5,5.19 1.98,1.87 1.98,1.87 4.75,4 13.97,11.15 29.29,24.5 31.55,43.53 0.01,2.22 0.01,2.22 -0.3,5.47 -2.78,-1.39 -2.98,-3.16 -4,-6 0.15,0.52 0.31,1.04 0.46,1.57 2.3,10.4 1.68,21.84 1.54,32.43 -1.32,-0.66 -2.64,-1.32 -4,-2 0.21,-0.95 0.41,-1.9 0.62,-2.88 0.13,-1.03 0.25,-2.06 0.38,-3.12 -0.66,-0.66 -1.32,-1.32 -2,-2 -0.21,0.65 -0.42,1.3 -0.64,1.97 -0.98,2.99 -1.98,5.98 -2.98,8.97 -0.34,1.02 -0.67,2.04 -1.01,3.09 -2.28,6.73 -5.11,12.29 -9.37,17.97 1.15,-0.33 1.15,-0.33 7,-2 -5.36,6.01 -11,8.08 -18.79,9.18 -3.39,1.26 -4.99,2.98 -7.21,5.82 -0.52,2.8 -0.79,5.02 -0.81,7.81 -0.03,0.7 -0.05,1.39 -0.08,2.1 -0.06,1.7 -0.09,3.39 -0.11,5.09 -0.99,-0.66 -1.98,-1.32 -3,-2 -0.99,4.29 -1.98,8.58 -3,13 -0.33,0 -0.66,0 -1,0 0,-5.28 0,-10.56 0,-16 -1.11,1.88 -2.23,3.75 -3.38,5.69 -0.62,1.05 -1.25,2.11 -1.89,3.2 -1.48,2.67 -2.68,5.25 -3.73,8.11 -1,-2 -1,-2 -1,-5 -2.09,2.71 -4.17,5.42 -6.25,8.12 -0.59,0.77 -1.17,1.53 -1.78,2.31 -3.14,4.1 -6.17,8.23 -8.97,12.57 -0.33,-0.66 -0.66,-1.32 -1,-2 1.1,-2.41 2.25,-4.64 3.56,-6.94 0.39,-0.69 0.78,-1.38 1.19,-2.1 5.33,-9.17 11.81,-17.56 18.25,-25.96 -1.04,-0.42 -2.08,-0.83 -3.15,-1.26 -7.43,-3.19 -14.59,-8.58 -19.85,-14.74 0,-0.66 0,-1.32 0,-2 -0.66,0 -1.32,0 -2,0 -0.33,1.65 -0.66,3.3 -1,5 -2.31,0.69 -2.31,0.69 -5,1 -2.77,-2.12 -3.62,-4.31 -4.69,-7.56 -2.31,-6.11 -6.09,-10.54 -10.31,-15.44 -0.68,-0.9 -1.36,-1.8 -2.06,-2.73 -1.94,-2.27 -1.94,-2.27 -4.94,-3.27 -5.08,-7.92 -8.03,-17.13 -11,-26 -0.21,8.57 0.28,16.68 1.69,25.12 0.17,1.1 0.35,2.19 0.53,3.32 2.04,12.56 4.39,25.06 6.78,37.56 -2.88,-1.29 -4.87,-2.66 -7,-5 0.4,1.26 0.8,2.51 1.21,3.8 0.25,0.81 0.51,1.62 0.77,2.45 0.56,1.76 1.12,3.51 1.67,5.27 1.39,4.37 2.71,8.74 3.91,13.17 1.35,4.62 3.68,8.4 6.44,12.31 0.66,-0.66 1.32,-1.32 2,-2 1.54,1.69 3.08,3.37 4.62,5.06 0.47,0.51 0.93,1.01 1.4,1.53 2.44,2.66 4.76,5.37 6.98,8.22 4.86,5.76 12.29,9.01 19,12.19 -0.66,1.32 -1.32,2.64 -2,4 -17.5,-8.77 -17.5,-8.77 -23,-14.14 -2.08,-1.94 -4.31,-3.58 -6.62,-5.25 -15.73,-11.48 -26.89,-28.46 -35.7,-45.61 -1.69,-3.01 -3.57,-5.64 -5.68,-8.38 -4.81,-6.35 -7.88,-13.33 -11,-20.62 -0.39,-0.91 -0.79,-1.82 -1.2,-2.76 -0.8,-2.24 -0.8,-2.24 -0.8,-5.24 -0.66,0 -1.32,0 -2,0 -1.98,-6.27 -3.96,-12.54 -6,-19 2.99,19.05 2.99,19.05 5.55,26.05 0.53,2.31 0.19,3.73 -0.55,5.95 -3.36,-3.73 -4.55,-7.99 -6,-12.69 -0.13,-0.41 -0.13,-0.41 -0.79,-2.51 -2.48,-8.19 -3.91,-16.35 -5.21,-24.8 -5.28,0 -10.56,0 -16,0 0,2.31 0,4.62 0,7 -0.5,1.86 -1.01,3.73 -1.51,5.59 -1.09,5.38 -0.98,10.94 -1.11,16.41 -0.02,0.63 -0.02,0.63 -0.12,3.79 -0.1,3.07 -0.18,6.14 -0.26,9.21 -2.16,-3.24 -2.28,-4.34 -2.41,-8.11 -0.04,-0.98 -0.08,-1.96 -0.12,-2.97 -0.02,-0.52 -0.02,-0.52 -0.09,-3.11 -0.04,-1.03 -0.08,-2.07 -0.12,-3.14 -0.1,-2.55 -0.18,-5.11 -0.26,-7.67 -7.08,9.36 -12.59,17.08 -14,29 0.99,0.66 1.98,1.32 3,2 -0.64,0.21 -1.28,0.41 -1.94,0.62 -2.06,1.38 -2.06,1.38 -2.81,4.5 -0.08,0.95 -0.16,1.9 -0.25,2.88 -2,-2 -2,-2 -3,-5 -0.43,0.5 -0.87,0.99 -1.31,1.5 -1.69,1.5 -1.69,1.5 -4.69,1.5 0,-0.66 0,-1.32 0,-2 -4.09,3.48 -8.07,7.01 -11.81,10.88 -4.73,4.79 -9.93,8.93 -15.19,13.12 -0.97,0.77 -1.93,1.55 -2.93,2.35 -2.35,1.89 -4.71,3.77 -7.07,5.65 4.12,-1.51 7.18,-2.98 10.44,-5.94 5.97,-5.41 12.57,-8.19 20.62,-8.25 0.86,-0.01 1.72,-0.03 2.6,-0.04 2.34,0.23 2.34,0.23 5.34,2.23 0.19,3.12 0.19,3.12 0,6 -0.66,0.33 -1.32,0.66 -2,1 0,-1.98 0,-3.96 0,-6 -8.99,-0.96 -15.43,1.1 -23,6 -2.47,2.24 -4.14,4.22 -6,7 -0.99,0.33 -1.98,0.66 -3,1 -1.84,2.17 -3.53,4.32 -5.19,6.62 -0.24,0.34 -0.24,0.34 -1.46,2.01 -4.82,6.76 -8.67,13.94 -12.35,21.37 -0.33,-0.66 -0.66,-1.32 -1,-2 1.08,-2.76 2.22,-5.39 3.5,-8.06 0.36,-0.77 0.72,-1.54 1.1,-2.32 2.81,-5.78 6.05,-10.85 10.4,-15.62 -4.24,0 -5.76,1.78 -8.82,4.57 -3.91,4.36 -6.54,9.43 -9.22,14.59 -0.9,1.73 -1.84,3.45 -2.77,5.16 -7.229996,13.66 -12.279996,28.51 -15.189996,43.68 -0.33,0 -0.659995,0 -0.999995,0 -0.27,-6.38 0.679995,-11.79 2.309995,-17.94 0.22,-0.84 0.43,-1.68 0.65,-2.55 1.44,-5.59 3.14,-11.06 5.04,-16.51 -1.13,1.75 -2.25,3.5 -3.38,5.25 -0.62,0.97 -1.25,1.95 -1.89,2.95 -1.38,2.24 -2.609995,4.43 -3.729995,6.8 -1,-3 -1,-3 0.3,-6.08 0.66,-1.25 1.33,-2.5 2.009995,-3.73 0.36,-0.67 0.72,-1.33 1.09,-2.01 3.31,-5.94 7.159996,-11.4 11.189996,-16.86 3.39,-4.61 6.41,-9.45 9.41,-14.32 -8.61,2.15 -13.9,4.6 -18.999996,12 -0.33,-0.66 -0.66,-1.32 -1,-2 1.44,-2.62 1.44,-2.62 3,-5 -3.3,0 -6.599995,0 -9.999995,0 2.35,-2.35 3.96,-2.73 7.119995,-3.62 0.92,-0.27 1.83,-0.53 2.76,-0.79 0.7,-0.2 1.4,-0.39 2.12,-0.59 -0.99,-0.99 -1.98,-1.98 -3,-3 6.749996,-4 6.749996,-4 8.999996,-4 0,-0.66 0,-1.32 0,-2 -1.98,0 -3.96,0 -5.999996,0 -0.33,-0.99 -0.66,-1.98 -1,-3 -3.79,1.47 -7.569995,2.95 -11.359995,4.43 -1.28,0.5 -2.56,0.99 -3.85,1.49 -7.34,2.85 -14.549999,5.79 -21.609999,9.29 -2.18,0.79 -2.18,0.79 -5.18,-0.21 17.259999,-13.4 37.669994,-20.67 57.99999,-28 -1.1,0.22 -2.2,0.43 -3.33,0.66 -11.189996,1.99 -22.279991,2.69 -33.619991,2.76 -1.55,0.01 -3.1,0.03 -4.65,0.05 C 61.53,234.18522 51.31,233.22522 41,229.56522 c -0.33,-0.66 -0.66,-1.32 -1,-2 0.67,0.13 1.33,0.27 2.02,0.4 20.4,3.91 39.579999,2.73 59.97999,-0.4 0.52,-0.08 0.52,-0.08 3.18,-0.49 6.95,-1.08 13.89,-2.26 20.82,-3.51 1.29,-0.22 2.57,-0.45 3.89,-0.68 7.11,-1.45 11.24,-3.98 16.11,-9.32 0.9,-0.97 1.8,-1.93 2.72,-2.93 6.17,-6.84 10.64,-13.55 14.28,-22.07 -1.32,0.33 -2.64,0.66 -4,1 0.51,-0.87 1.02,-1.74 1.54,-2.64 5.87,-10.13 11.62,-20.26 15.46,-31.36 -0.54,-0.15 -1.08,-0.31 -1.63,-0.46 -6.2,-1.9 -11.44,-4.63 -16.93,-8.04 -0.82,-0.49 -1.64,-0.97 -2.48,-1.47 -0.77,-0.48 -1.54,-0.95 -2.34,-1.44 -0.7,-0.42 -1.39,-0.85 -2.11,-1.29 -0.5,-0.43 -1,-0.86 -1.51,-1.3 0,-0.99 0,-1.98 0,-3 0.64,0.19 1.28,0.39 1.94,0.59 0.87,0.26 1.73,0.52 2.62,0.79 0.85,0.25 1.7,0.51 2.57,0.77 3.28,0.97 6.58,1.91 9.87,2.85 -0.85,-0.75 -1.71,-1.5 -2.59,-2.27 -1.12,-0.99 -2.23,-1.98 -3.35,-2.98 -0.56,-0.49 -1.13,-0.98 -1.71,-1.49 -2.98,-2.68 -4.57,-4.36 -5.35,-8.26 -0.31,-0.6 -0.62,-1.2 -0.94,-1.81 -1.43,-2.96 -2.21,-6.02 -3.06,-9.19 3.3,1.49 5.89,3.39 8.69,5.69 0.44,0.35 0.44,0.35 2.65,2.15 0.88,0.71 1.76,1.42 2.66,2.16 4.81,3.89 9.31,7.52 15,10 4.16,-4.45 6.05,-8.08 7.56,-13.94 0.21,-0.74 0.41,-1.48 0.63,-2.24 1,-3.63 1.93,-7.29 2.84,-10.95 1.64,-6.53 3.31,-12.059997 6.86,-17.8 1.88,-3.52 2.43,-7.15 3.11,-11.07 -1.98,2.31 -3.96,4.62 -6,7 0,-4.45 2.71,-7.43 5.16,-11 1.69,-2.59 2.82,-4.91 3.54,-7.93 -1.1,-4.85 -4.35,-7.53 -7.82,-10.95 -14.47,-14.54 -14.47,-14.54 -14.88,-21.12 4.48,1.54 8.63,3.38 10.92,7.76 0.3,0.66 0.59,1.31 0.89,1.99 2.31,5.1 6.1,8.52 10.19,12.25 0.33,-2.31 0.66,-4.62 1,-7 -0.66,0.17 -0.66,0.17 -4,1 0,-1.32 0,-2.64 0,-4 5.37,-0.44 5.37,-0.44 8,0 2,2.5 2,2.5 3,5 0.58,-0.95 1.15,-1.9 1.75,-2.88 2.25,-3.12 2.25,-3.12 4.22,-4 2.8,-1.55 3.45,-3.37 4.78,-6.24 0.43,-0.92 0.86,-1.83 1.3,-2.76 0.31,-0.7 0.63,-1.4 0.95,-2.12 0.33,0.5 0.33,0.5 2,3 0.77,-0.92 1.54,-1.83 2.34,-2.77 1.01,-1.2 2.02,-2.4 3.04,-3.61 0.5,-0.6 1.01,-1.2 1.53,-1.82 0.25,-0.29 0.25,-0.29 1.49,-1.76 0.45,-0.54 0.9,-1.07 1.36,-1.62 1.03,-1.18 2.13,-2.31 3.24,-3.42 z"
     fill="#f7f7f7"
     id="path2" />
  <path
     d="m 599.99999,24.56522 c 0.45,0.36 0.9,0.73 1.36,1.1 2.17,1.7 4.39,3.31 6.64,4.9 0.82,0.58 1.64,1.17 2.49,1.77 6.72,4.25 11.52,4.65 19.35,3.56 3.04,-0.32 5.23,-0.1 8.16,0.67 -0.16,-0.33 -0.16,-0.33 -1,-2 4.19,0.47 6.45,2.88 9,6 2.22,3.39 4.21,6.9 6.19,10.44 0.53,0.93 1.06,1.86 1.61,2.81 3.81,6.74 6.33,12.23 6.58,20.06 0.36,5.97 1.73,10.49 4.62,15.69 0,-3.51 -0.38,-6.56 -1,-10 3.06,2.58 4.25,5.49 5.81,9.12 2.52,5.610003 5.14,11.200003 9.19,15.88 0.5,0.16 0.5,0.16 3,1 3,5.22 3,5.22 3,8 0.59,0.09 1.17,0.19 1.77,0.28 4.3,1.39 6.77,5.09 9.23,8.72 1.33,2.98 1.73,5.75 2,9 0.08,0.99 0.16,1.97 0.25,2.99 0.44,11.83 -1.84,23.36 -3.76,34.99 -0.65,4.04 -1.22,8.09 -1.74,12.14 -0.15,1.16 -0.3,2.32 -0.45,3.51 -0.1,0.78 -0.2,1.57 -0.3,2.37 0.67,0.23 1.34,0.46 2.03,0.69 3.8,1.68 7.05,3.9 10.47,6.25 1.92,1.3 3.84,2.61 5.78,3.9 1.49,1.01 2.97,2.05 4.44,3.1 2.28,1.06 2.28,1.06 4.42,0.49 2.08,-1.6 3.2,-3.06 4.55,-5.31 0.41,-0.67 0.83,-1.35 1.26,-2.05 2.69,-5.3 2.9,-11.26 2.05,-17.07 -2.18,-4.68 -4.7,-8.13 -9,-11 -1.32,0 -2.64,0 -4,0 2.64,1.98 5.28,3.96 8,6 -3,1 -3,1 -5.12,-0.04 -8.62,-5.9 -11.81,-10.7 -13.88,-20.96 -0.39,-4.28 -0.42,-8.52 -0.38,-12.81 -0.01,-1.09 -0.02,-2.19 -0.03,-3.31 0.02,-6.71 0.52,-11.38 4.92,-16.71 3.37,-2.97 5.67,-4.4 10.18,-4.98 2.29,-0.36 2.29,-0.36 4.31,-1.19 1.95,-2.82 3.04,-5.72 4,-9 -0.33,0.16 -0.33,0.16 -2,1 0.33,-6.749997 1.63,-12.9 3.44,-19.38 0.21,-0.78 0.43,-1.56 0.66,-2.37 1.03,-3.63 2.14,-6.9 3.9,-10.25 0.66,0.33 1.32,0.66 2,1 -0.28,1.15 -0.55,2.29 -0.84,3.47 -0.37,1.53 -0.73,3.06 -1.1,4.59 -0.18,0.75 -0.36,1.51 -0.55,2.28 -1.08,4.54 -1.93,9.03 -2.51,13.660003 1.81,-2.96 3.44,-5.890003 5,-9.000003 0,3.3 0,6.600003 0,10.000003 0.99,-0.99 1.98,-1.98 3,-3 0.66,0 1.32,0 2,0 -1.49,3.28 -3.39,5.929997 -5.62,8.749997 -0.64,0.8 -1.27,1.6 -1.92,2.42 -0.24,0.3 -0.24,0.3 -1.46,1.83 3.4,-1.61 6.1,-3.59 9,-6 0.66,0.33 1.32,0.66 2,1 -2.64,2.64 -5.28,5.28 -8,8 1.49,-0.16 1.49,-0.16 9,-1 0,0.66 0,1.32 0,2 -0.53,0.26 -1.07,0.51 -1.62,0.78 -8.39,4.31 -14.79,10.56 -21.38,17.22 0.33,0.33 0.66,0.66 1,1 -0.95,1.15 -1.91,2.29 -2.88,3.44 -0.53,0.64 -1.06,1.27 -1.61,1.93 -1.51,1.63 -1.51,1.63 -3.51,2.63 -0.16,0.5 -0.16,0.5 -1,3 0.99,-0.33 1.98,-0.66 3,-1 0.11,0.63 0.11,0.63 0.69,3.81 1.59,4.87 4.51,7.38 8.43,10.44 9.64,7.57 17.38,17.45 19.37,29.8 0.71,6.03 0.71,6.03 0.51,8.95 -1.39,1.6 -1.39,1.6 -3,3 -0.88,2.01 -0.88,2.01 -1.56,4.12 -0.69,2.14 -0.69,2.14 -1.44,3.88 -0.66,0.33 -1.32,0.66 -2,1 0.01,-0.46 0.01,-0.46 0.04,-2.81 0,-1.2 0.01,-2.39 0.02,-3.63 0.01,-0.59 0.01,-0.59 0.04,-3.62 -0.1,-2.94 -0.1,-2.94 -1.1,-3.94 -0.34,0.9 -0.68,1.81 -1.02,2.74 -0.45,1.18 -0.9,2.36 -1.36,3.57 -0.22,0.59 -0.22,0.59 -1.33,3.55 -1.29,3.14 -1.29,3.14 -3.29,6.14 0.36,3.22 1.83,5.41 3.5,8.12 3.01,5.76 3.13,11.27 3.22,17.63 0.07,3.96 0.22,6.84 2.28,10.25 0.12,2.75 0.12,2.75 0,5 -0.66,-0.66 -1.32,-1.32 -2,-2 0,-0.99 0,-1.98 0,-3 -0.66,0 -1.32,0 -2,0 0,7.59 0,15.18 0,23 -3.12,-3.12 -3.7,-4.53 -4.94,-8.62 -1.2,-3.85 -2.49,-7.45 -4.25,-11.07 -1.43,-3.06 -2.04,-5.5 -2.25,-8.87 -0.34,-4.92 -2.32,-8.74 -5.56,-12.44 -0.66,0 -1.32,0 -2,0 -0.25,0.4 -0.25,0.4 -1.5,2.44 -1.99,3.17 -4.42,5.37 -7.25,7.81 -5.1,4.44 -9.21,9.34 -13.25,14.75 -0.33,-0.66 -0.66,-1.32 -1,-2 1.21,-2.52 2.48,-4.9 3.88,-7.31 0.2,-0.36 0.2,-0.36 1.22,-2.15 3.93,-6.78 8.3,-13.19 12.9,-19.54 -1.48,-3.36 -3.41,-5.79 -5.88,-8.5 -0.67,-0.75 -1.35,-1.51 -2.05,-2.28 -1.4,-1.5 -2.84,-2.96 -4.33,-4.38 -1.74,-1.84 -1.74,-1.84 -1.74,-3.84 -1.98,-0.66 -3.96,-1.32 -6,-2 -0.03,0.27 -0.03,0.27 -0.19,1.62 -1.19,3.49 -3.37,5.63 -5.81,8.38 0,-6 0,-6 0.07,-8.3 0.18,-8.48 0.18,-8.48 -2.07,-12.7 0.5,0.33 0.5,0.33 3,2 2.12,-6.4 2.82,-12.82 3.56,-19.5 0.25,-2.2 0.5,-4.4 0.76,-6.59 0.11,-1.04 0.23,-2.07 0.35,-3.13 0.26,-2.2 0.58,-4.38 0.92,-6.57 0.48,-3.74 0.51,-7.37 0.47,-11.15 0,-0.68 -0.01,-1.37 -0.01,-2.07 -0.01,-1.66 -0.03,-3.33 -0.05,-4.99 -1.65,-0.66 -3.3,-1.32 -5,-2 0.33,1.15 0.33,1.15 2,7 -2.35,-2.14 -3.64,-4.14 -5,-7 -1.28,0.01 -2.55,0.02 -3.87,0.04 -1.67,0 -3.34,0.01 -5.01,0.02 -0.84,0.01 -1.68,0.02 -2.55,0.03 -0.8,0 -1.61,0 -2.44,0.01 -0.37,0 -0.37,0 -2.25,0.01 -1.88,-0.11 -1.88,-0.11 -3.88,-1.11 0.01,0.81 0.01,1.62 0.02,2.46 0.01,3.07 0.03,6.14 0.03,9.22 0.01,1.95 0.03,3.91 0.04,5.87 0.05,21.95 0.05,21.95 -3.09,29.45 0,2.56 0,2.56 1,5 1.4,0.97 2.81,1.93 4.27,2.82 6.9,4.71 10.47,12.14 14.3,19.3 3.04,5.51 6.56,9.84 11.43,13.88 -3.58,0 -5.05,-1.09 -8,-3 0.99,1.98 1.98,3.96 3,6 -3.84,-1.56 -6.1,-4.1 -9,-7 -0.65,-0.3 -1.3,-0.61 -1.98,-0.92 -2.42,-1.29 -3.36,-2.63 -4.9,-4.89 -5.6,-7.68 -11.01,-10.2 -20.12,-12.19 -0.19,0.63 -0.39,1.25 -0.59,1.9 -0.26,0.82 -0.52,1.63 -0.79,2.48 -0.25,0.81 -0.51,1.62 -0.77,2.46 -0.85,2.16 -0.85,2.16 -2.85,4.16 0,-2.31 0,-4.62 0,-7 -0.7,0.49 -1.4,0.99 -2.12,1.5 -0.91,0.64 -1.82,1.28 -2.76,1.94 -0.45,0.32 -0.45,0.32 -2.74,1.93 -3.75,2.56 -5.85,2.73 -10.38,2.63 -0.33,-0.99 -0.66,-1.98 -1,-3 -0.93,0.5 -1.86,0.99 -2.81,1.5 -3.19,1.5 -3.19,1.5 -6.19,1.5 1.18,-3.54 1.78,-3.73 4.94,-5.45 0.81,-0.45 1.62,-0.91 2.45,-1.37 0.86,-0.47 1.72,-0.94 2.61,-1.43 19.93,-11.24 19.93,-11.24 23,-20.89 1.05,-4.07 1.67,-8 2.12,-12.17 0.09,-0.75 0.17,-1.49 0.26,-2.25 1.56,-14.55 1.56,-14.55 -0.38,-18.44 -0.23,-2.37 -0.41,-4.75 -0.56,-7.12 -0.09,-1.29 -0.17,-2.57 -0.26,-3.89 -0.06,-0.99 -0.12,-1.97 -0.18,-2.99 -6.39,2.29 -6.39,2.29 -8.88,5.19 -1.01,2.53 -1.39,4.38 -1.68,7.06 -0.15,1.24 -0.29,2.48 -0.44,3.75 -0.33,0.16 -0.33,0.16 -2,1 -0.66,-2.97 -1.32,-5.94 -2,-9 -1.32,1.98 -2.64,3.96 -4,6 -1.5,-1.06 -1.5,-1.06 -3,-3 -0.59,-5.23 0.29,-8.52 3,-13 0.66,-0.66 1.32,-1.32 2,-2 -0.3,0 -0.3,0 -1.79,0.02 -2.67,0.02 -5.35,0.03 -8.02,0.04 -0.93,0.01 -1.86,0.02 -2.82,0.03 -0.89,0 -1.78,0 -2.7,0.01 -0.82,0 -1.65,0.01 -2.49,0.01 -2.18,-0.11 -2.18,-0.11 -5.18,-1.11 0,0.93 0.01,1.85 0.01,2.8 0.04,8.77 0.07,17.54 0.09,26.31 0.01,4.5 0.03,9.01 0.05,13.51 0.02,4.36 0.03,8.72 0.04,13.08 0,1.65 0.01,3.3 0.02,4.96 0.06,9.32 -0.23,18.17 -2.21,27.34 -0.5,-0.33 -0.5,-0.33 -3,-2 -0.42,2.32 -0.85,4.64 -1.27,6.96 -0.36,2 -0.73,3.99 -1.09,5.99 -0.86,4.68 -1.7,9.36 -2.47,14.05 -0.12,0.75 -0.25,1.51 -0.38,2.29 -0.33,2.02 -0.66,4.05 -0.98,6.08 -0.88,3.96 -1.95,7.03 -3.81,10.63 -0.99,0.33 -1.98,0.66 -3,1 -1.67,2 -3.34,4 -5,6 -0.66,0 -1.32,0 -2,0 0.39,-4.37 1.3,-7.96 2.91,-12.04 2.13,-5.76 3.29,-11.41 4.21,-17.46 0.17,-1.03 0.34,-2.06 0.51,-3.13 1.28,-8.19 2.22,-16.41 2.98,-24.67 0.39,-3.7 0.39,-3.7 0.88,-5.6 2.72,-11.21 1.7,-23.84 1.77,-35.29 0.02,-3.43 0.05,-6.86 0.08,-10.29 0.06,-7.34 0.11,-14.68 0.16,-22.02 0.07,-9.57 0.14,-19.15 0.22,-28.72 0.01,-1.17 0.02,-2.34 0.03,-3.54 0.19,-23.08 0.65,-46.16 1.25,-69.24 2,1 2,1 4,4 0.56,-0.33 1.11,-0.66 1.69,-1 2.61,-1.13 4.49,-1.16 7.31,-1 -0.34,-0.33 -0.34,-0.33 -2.06,-2 -2.33,-2.33 -4.56,-4.74 -6.75,-7.19 -0.61,-0.67 -1.21,-1.35 -1.83,-2.04 -1.36,-1.77 -1.36,-1.77 -1.36,-3.77 z"
     fill="#f7f7f7"
     id="path3" />
  <path
     d="m 593.99999,59.56522 c 0.33,0.66 0.66,1.32 1,2 -0.95,2.45 -1.96,4.8 -3.06,7.19 -5.9,12.87 -10.83,25.880003 -14.88,39.43 -0.21,0.7 -0.42,1.4 -0.64,2.12 -4.17,13.84 -7.64,27.8 -10.82,41.89 -0.6,2.37 -0.6,2.37 -1.6,4.37 -0.1,2.19 -0.13,4.39 -0.13,6.59 0,0.33 0,0.33 -0.01,2 0,1.4 0.01,2.8 0.01,4.2 0,2.11 0,4.21 -0.01,6.32 -0.01,20.44 -0.01,20.44 3.14,29.89 -0.99,-0.33 -1.98,-0.66 -3,-1 -0.33,-0.66 -0.66,-1.32 -1,-2 0.56,4.22 1.22,8.43 1.94,12.62 0.15,0.9 0.3,1.8 0.46,2.73 0.61,2.7 1.5,5.11 2.6,7.65 -0.5,-0.33 -0.5,-0.33 -3,-2 0,-0.66 0,-1.32 0,-2 -0.66,0 -1.32,0 -2,0 -0.33,0.66 -0.66,1.32 -1,2 -1.65,-1.98 -3.3,-3.96 -5,-6 0,2.71 0.77,5.02 1.5,7.62 0.28,1.01 0.56,2.01 0.84,3.04 0.22,0.77 0.44,1.55 0.66,2.34 -5.41,-4.69 -6.75,-12.63 -8.12,-19.38 -2.1,-8.97 -6.68,-17.13 -10.78,-25.32 -1.14,-2.39 -2.14,-4.82 -3.1,-7.3 -6.49,2.16 -9.85,11.53 -12.81,17.38 -0.75,1.53 -1.48,3.07 -2.19,4.62 -0.36,0.78 -0.72,1.56 -1.1,2.36 -1.09,3.19 -1.32,6.09 -1.52,9.45 -0.08,1.16 -0.15,2.33 -0.23,3.52 -0.03,0.44 -0.03,0.44 -0.15,2.67 -1.32,-0.33 -2.64,-0.66 -4,-1 -0.18,11.52 -0.18,11.52 1,17 -3.01,-1.51 -3.61,-4.03 -5,-7 -0.66,0 -1.32,0 -2,0 -0.04,-0.57 -0.08,-1.13 -0.12,-1.71 -1.13,-15.62 -3.24,-30.92 -5.88,-46.35 -0.54,-3.19 -1.07,-6.38 -1.61,-9.57 -0.34,-2.03 -0.68,-4.06 -1.02,-6.1 -1.24,-7.41 -2.37,-14.82 -3.37,-22.27 -1.49,0.16 -1.49,0.16 -9,1 1.32,0.66 2.64,1.32 4,2 -9.72,2.55 -19,2.14 -29,2 0,6.27 0,12.54 0,19 0.83,-0.16 0.83,-0.16 5,-1 0.5,0.33 0.5,0.33 3,2 -2.31,0 -4.62,0 -7,0 3.46,4.18 6.98,5.33 12,7 0,0.33 0,0.66 0,1 -1.4,-0.12 -2.79,-0.24 -4.19,-0.38 -0.77,-0.06 -1.55,-0.13 -2.35,-0.21 -2.7,-0.45 -4.94,-1.37 -7.46,-2.41 0.04,5.46 0.11,10.93 0.21,16.39 0.03,1.86 0.05,3.71 0.06,5.57 0.02,2.67 0.07,5.35 0.12,8.02 0,0.83 0,1.66 0,2.51 0.1,3.88 0.32,6.03 2.36,9.42 2.23,2.07 4.06,3.31 6.81,4.55 0.88,0.41 1.75,0.81 2.65,1.23 0.92,0.41 1.84,0.82 2.79,1.25 1.89,0.87 3.78,1.74 5.67,2.61 0.91,0.42 1.82,0.84 2.77,1.26 4.91,2.28 9.73,4.73 14.56,7.19 0,0.66 0,1.32 0,2 -0.83,-0.14 -1.65,-0.29 -2.5,-0.44 -3.83,-0.61 -7.65,-1.1 -11.5,-1.56 0.66,0.99 1.32,1.98 2,3 -5.49,0.32 -9.64,-0.67 -14.62,-2.81 -0.65,-0.26 -1.29,-0.52 -1.95,-0.79 -3.67,-1.53 -7.08,-3.26 -10.43,-5.4 -0.12,1.13 -0.25,2.27 -0.38,3.44 -0.2,1.17 -0.41,2.35 -0.62,3.56 -0.66,0.33 -1.32,0.66 -2,1 -0.99,-2.35 -1.97,-4.7 -2.94,-7.06 -0.28,-0.66 -0.55,-1.32 -0.84,-1.99 -0.13,-0.33 -0.13,-0.33 -0.81,-1.99 -0.25,-0.59 -0.49,-1.18 -0.75,-1.79 -1.81,-5.93 -1.8,-12 -1.77,-18.13 0,-0.87 0,-1.74 0,-2.64 0,-2.85 0,-5.7 0.01,-8.55 0,-1.99 0.01,-3.97 0.01,-5.96 0,-5.21 0.01,-10.42 0.02,-15.63 0.01,-5.32 0.02,-10.64 0.02,-15.97 0.01,-10.43 0.03,-20.86 0.05,-31.29 -0.99,0 -1.98,0 -3,0 0.99,-1.65 1.98,-3.3 3,-5 -1.32,-0.66 -2.64,-1.32 -4,-2 0.76,-0.02 1.53,-0.04 2.31,-0.06 2.69,-0.94 2.69,-0.94 4.38,-3.88 1.44,-3.9 2.13,-7.92 2.78,-12.019997 0.18,-0.67 0.35,-1.35 0.53,-2.04 0.33,-0.17 0.33,-0.17 2,-1 0.33,1.98 0.66,3.959997 1,5.999997 0.27,-0.21 0.27,-0.21 1.61,-1.28 0.35,-0.27 0.35,-0.27 2.14,-1.659997 0.7,-0.54 1.39,-1.09 2.11,-1.65 2.1,-1.38 3.68,-1.97 6.14,-2.41 -5.97,-8.820003 -5.97,-8.820003 -11,-10.000003 -0.33,0.99 -0.66,1.98 -1,3 -0.33,-0.66 -0.66,-1.32 -1,-2 0.66,-0.99 1.32,-1.98 2,-3 4.57,0.11 6.66,1.33 9.75,4.5 0.57,0.63 1.14,1.26 1.73,1.91 1.52,1.59 1.52,1.59 3.52,2.59 -3.38,-5.61 -6.19,-9.82 -12,-13 0.66,-0.33 1.32,-0.66 2,-1 2.12,0.94 2.12,0.94 4,2 -0.5,-0.78 -0.99,-1.57 -1.5,-2.38 -1.5,-2.62 -1.5,-2.62 -1.5,-4.62 0.66,0 1.32,0 2,0 1.59,2.17 2.96,4.45 4.37,6.74 1.66,2.31 3.36,3.59 5.63,5.26 0,0.66 0,1.32 0,2 0.56,-0.1 0.56,-0.1 3.38,-0.62 1.19,-0.13 2.39,-0.25 3.62,-0.38 0.66,0.66 1.32,1.32 2,2 -0.02,2.38 -0.02,2.38 -0.38,5.120003 -0.11,0.92 -0.22,1.83 -0.33,2.76 -0.1,0.7 -0.19,1.4 -0.29,2.12 0.35,-0.12 0.35,-0.12 2.14,-0.75 3.2,-1.12 6.4,-2.21 9.61,-3.31 1.11,-0.39 2.22,-0.78 3.37,-1.18 1.07,-0.370003 2.14,-0.730003 3.24,-1.110003 0.98,-0.34 1.97,-0.68 2.98,-1.03 2.72,-0.63 4.08,-0.57 6.66,0.38 -0.54,0.23 -1.09,0.45 -1.65,0.69 -2.49,1.040003 -4.98,2.080003 -7.47,3.120003 -0.86,0.36 -1.72,0.72 -2.6,1.08 -4.51,1.89 -8.94,3.849997 -13.28,6.109997 1.11,3.11 1.99,4 4.87,5.77 12.81,9.12 15.95,34.39 18.48,48.89 1.02,6.58 1.85,13.19 2.65,19.8 0.12,0.95 0.23,1.9 0.35,2.88 0.05,0.42 0.05,0.42 0.31,2.58 0.34,2.08 0.34,2.08 1.34,4.08 0.52,-1.04 1.04,-2.08 1.57,-3.15 0.34,-0.67 0.68,-1.34 1.02,-2.03 0.74,-1.48 1.47,-2.95 2.21,-4.43 1.51,-3.05 3.02,-6.07 4.67,-9.05 3.36,-6.11 5.09,-12.44 6.74,-19.19 0.19,-0.75 0.38,-1.5 0.58,-2.27 0.16,-0.68 0.32,-1.35 0.49,-2.05 0.85,-2.16 1.99,-3.3 3.72,-4.83 0,0.66 0,1.32 0,2 1.65,-0.66 3.3,-1.32 5,-2 -0.14,0.55 -0.29,1.09 -0.44,1.65 -1.91,7.79 -2.75,13.92 0.61,21.35 1.53,3.7 2.49,7.57 3.52,11.44 0.11,0.41 0.11,0.41 0.68,2.5 0.55,2.02 1.09,4.04 1.63,6.06 0.01,-0.79 0.02,-1.58 0.03,-2.39 0.63,-42.91 0.63,-42.91 6.97,-54.61 0.33,0.99 0.66,1.98 1,3 0.23,-0.94 0.46,-1.89 0.7,-2.86 2.11,-8.39 4.71,-16.24 8.3,-24.14 0.99,0 1.98,0 3,0 0.12,-0.41 0.12,-0.41 0.72,-2.479997 1.52,-4.19 3.53,-7.900003 5.72,-11.770003 0.21,-0.39 0.21,-0.39 1.31,-2.34 4.86,-8.61 10.03,-17.02 15.25,-25.41 z"
     fill="#f7f7f7"
     id="path4" />
  <path
     d="m 890.99999,49.56522 c -1.04,0.5 -2.08,0.99 -3.15,1.5 -8.1,3.93 -15.68,7.99 -22.85,13.5 2.4,0 4.06,-0.68 6.31,-1.5 3.36,-1.15 6.1,-1.85 9.69,-1.5 -2.34,2.34 -3.99,2.75 -7.12,3.75 -7.6,2.68 -13.21,6.63 -17.88,13.25 0.33,-1.65 0.66,-3.3 1,-5 -11.68,11.25 -14.27,21.120003 -14.83,36.82 -0.17,2.18 -0.17,2.18 -0.69,4.03 -0.48,2.15 -0.48,2.15 -0.48,9.15 3.63,-7.59 7.26,-15.18 11,-23 1.12,3.36 0.95,3.8 -0.33,6.91 -0.3,0.77 -0.61,1.53 -0.92,2.31 -0.33,0.8 -0.66,1.59 -1,2.4 -2.47,6.07 -4.75,12.14 -6.75,18.38 0.99,-0.99 1.98,-1.98 3,-3 0.66,0.33 1.32,0.66 2,1 -0.4,0.65 -0.8,1.3 -1.21,1.98 -0.53,0.87 -1.06,1.74 -1.6,2.64 -0.52,0.86 -1.05,1.72 -1.58,2.61 -0.53,0.91 -1.06,1.83 -1.61,2.77 -0.55,0.94 -1.09,1.88 -1.66,2.85 -1.56,3.67 -1.9,6.97 -2.03,10.9 -0.03,0.73 -0.06,1.46 -0.1,2.21 -0.22,5.59 -0.31,11.19 -0.33,16.79 -0.01,0.75 -0.01,1.5 -0.02,2.27 0.01,3.81 0.37,7.26 1.14,10.98 0.07,2.27 0.09,4.54 0.06,6.81 -0.01,1.16 -0.02,2.33 -0.02,3.52 -0.02,0.88 -0.03,1.76 -0.04,2.67 -0.66,0 -1.32,0 -2,0 2.12,6.58 5.24,12.35 8.88,18.19 0.41,0.66 0.82,1.33 1.24,2.01 3.92,6.19 8.22,11.97 14.26,16.24 0.68,0.49 1.37,0.98 2.08,1.49 0.51,0.36 1.02,0.71 1.54,1.07 -0.66,0.33 -1.32,0.66 -2,1 -2.12,-0.94 -2.12,-0.94 -4,-2 0.81,0.87 1.62,1.74 2.45,2.63 1.08,1.17 2.16,2.33 3.24,3.49 0.53,0.57 1.06,1.14 1.6,1.73 2.49,2.69 4.88,5.36 7.16,8.23 2.92,3.35 6.07,5.89 9.61,8.54 3.88,2.95 7.59,5.82 10.94,9.38 -4.67,-1.31 -7.87,-3.16 -11.69,-6.12 -4.98,-3.88 -4.98,-3.88 -8.31,-3.88 0.24,0.27 0.24,0.27 1.46,1.64 0.63,0.72 1.26,1.44 1.92,2.17 0.62,0.71 1.25,1.42 1.89,2.15 1.73,2.04 1.73,2.04 3.73,5.04 -4.5,-1.43 -7.51,-3.93 -10.88,-7.12 -0.52,-0.49 -1.04,-0.98 -1.58,-1.48 -4.13,-3.89 -7.96,-8 -11.54,-12.4 0.66,1.09 1.32,2.19 2,3.31 1.58,2.63 2,3.52 2,6.69 -6.2,-6.52 -11.18,-13.47 -16,-21.06 -0.68,-1.06 -1.36,-2.12 -2.06,-3.2 -1.65,-2.58 -3.3,-5.16 -4.94,-7.74 0.16,1.49 0.16,1.49 1,9 -2.46,-2.46 -2.8,-4.23 -3.75,-7.56 -1.15,-3.94 -2.35,-7.79 -3.81,-11.62 -2.96,-7.81 -4.9,-14.46 -5.16,-22.9 -0.3,-3.08 -1.07,-5.24 -2.34,-8.04 -2.05,-4.55 -2.22,-8.18 -2.01,-13.12 0.11,-4.31 -0.43,-8.48 -0.93,-12.76 -6.6,0 -13.2,0 -20,0 0,2.08 -0.01,4.16 -0.01,6.31 -0.02,6.95 -0.06,13.91 -0.12,20.87 -0.04,4.21 -0.06,8.42 -0.07,12.62 -0.05,37.75 -0.05,37.75 -5.8,51.2 -0.66,0.33 -1.32,0.66 -2,1 0.33,-1.22 0.66,-2.43 1,-3.69 1.36,-6.04 1.39,-12.14 1,-18.31 -0.33,-0.33 -0.66,-0.66 -1,-1 -0.34,0.85 -0.68,1.71 -1.02,2.59 -0.45,1.1 -0.9,2.21 -1.36,3.35 -0.22,0.55 -0.22,0.55 -1.33,3.34 -1.29,2.72 -1.29,2.72 -3.29,3.72 0.71,-4.76 1.8,-9.34 3,-14 -0.76,0.66 -1.53,1.32 -2.31,2 -2.69,2 -2.69,2 -5.69,2 0.33,-4.95 0.66,-9.9 1,-15 -4.3,-2.15 -6.29,-2.67 -11,-2 -2.19,3 -2.19,3 -4,6 -1.32,0 -2.64,0 -4,0 0.33,-0.99 0.66,-1.98 1,-3 0.66,0 1.32,0 2,0 0.33,-1.32 0.66,-2.64 1,-4 -0.86,-0.42 -1.71,-0.85 -2.6,-1.29 -11.17,-5.73 -18.58,-11.74 -23.4,-23.71 -1.93,-7.02 -2.29,-13.82 -2.19,-21.06 0.01,-1 0.02,-2 0.03,-3.04 0.04,-2.96 0.1,-5.93 0.16,-8.9 0.01,-0.83 0.03,-1.65 0.04,-2.5 0.34,-16.57 4.12,-31.71 15.9,-43.94 3.79,-3.58 7.25,-6.5 12.06,-8.56 0.5,0.17 0.5,0.17 3,1 -0.99,0.99 -1.98,1.98 -3,3 4.38,-0.82 8.68,-1.9 13,-3 -0.56,-3.789997 -2.12,-5.419997 -4.88,-7.999997 -2.67,-2.520003 -4.99,-5.000003 -7.12,-8.000003 0.33,-0.66 0.66,-1.32 1,-2 0.59,0.68 1.18,1.35 1.79,2.05 0.79,0.89 1.58,1.78 2.4,2.7 0.77,0.88 1.55,1.76 2.35,2.67 2.46,2.580003 2.46,2.580003 5.24,4.740003 2.22,1.84 2.22,1.84 2.53,4.589997 -0.1,0.74 -0.2,1.49 -0.31,2.25 -2.31,0.99 -4.62,1.98 -7,3 2.31,0 4.62,0 7,0 -0.72,4.38 -2.82,5.96 -6.14,8.67 -2.18,1.56 -4.31,2.56 -6.86,3.33 0.66,0.99 1.32,1.98 2,3 0.12,2.69 0.12,2.69 0,5 -0.66,0 -1.32,0 -2,0 -0.16,-0.33 -0.16,-0.33 -1,-2 -1.15,0.16 -1.15,0.16 -7,1 -0.27,0.71 -0.54,1.42 -0.82,2.16 -1.2,2.9 -2.63,5.58 -4.12,8.34 -5.94,11.8 -7.19,23.21 -4.56,36 0.14,0.73 0.29,1.45 0.43,2.2 0.35,1.77 0.71,3.54 1.07,5.3 0.66,-0.99 1.32,-1.98 2,-3 0.99,-1.34 1.99,-2.67 3,-4 -0.02,0.64 -0.03,1.27 -0.05,1.92 -0.06,2.9 -0.1,5.8 -0.14,8.7 -0.02,1 -0.05,2 -0.07,3.03 -0.06,5.53 0.02,9.63 3.26,14.35 3.97,2.38 8.47,2.54 13,3 -0.33,1.32 -0.66,2.64 -1,4 0.89,0.14 1.77,0.29 2.69,0.44 2.78,0.47 5.55,1.01 8.31,1.56 0.33,-16.17 0.66,-32.34 1,-49 -1.65,-0.33 -3.3,-0.66 -5,-1 -0.33,-0.33 -0.33,-0.33 -2,-2 0.19,-2.5 0.19,-2.5 1,-5 3,-2 3,-2 6,-2 0,-4.62 0,-9.24 0,-14 -0.99,1.98 -1.98,3.96 -3,6 -1.28,-3.85 -0.42,-5.38 0.88,-9.19 1.58,-4.97 2.86,-9.59 3.12,-14.81 0.06,-0.58 0.06,-0.58 0.37,-3.52 0.76,-9.93 -1.47,-15.949997 -7.11,-24.08 -2.31,-3.34 -3.91,-6.56 -5.26,-10.4 0.16,-0.5 0.16,-0.5 1,-3 7.47,5.33 11.1,11.89 15,20.000003 0.99,0 1.98,0 3,0 0.14,0.61 0.27,1.22 0.41,1.85 0.63,2.779997 1.26,5.559997 1.9,8.339997 0.11,0.48 0.11,0.48 0.65,2.91 1.71,7.38 1.71,7.38 3.7,10.52 2.05,3.63 1.66,7.11 1.53,11.19 -0.01,0.4 -0.01,0.4 -0.04,2.39 -0.04,1.93 -0.09,3.87 -0.15,5.8 3.74,2.45 7.44,2.23 11.75,2.12 0.35,0 0.35,0 2.11,-0.02 1.72,-0.03 3.43,-0.06 5.14,-0.1 0.29,-6.97 -0.44,-13.53 -1.49,-20.42 -1.36,-9.51 -1.67,-18.99 -1.51,-28.579997 0.66,0 1.32,0 2,0 1.64,6.669997 2.51,13.149997 3,19.999997 0.33,0 0.66,0 1,0 0.12,-0.63 0.12,-0.63 0.7,-3.84 3.12,-16.339997 3.12,-16.339997 7.25,-22.47 1.05,-1.69 1.05,-1.69 1.5,-3.76 0.84,-2.97 3.21,-4.1 5.53,-5.98 3.28,-3.17 5.51,-6.99 7.95,-10.83 3.06,-4.62 6.53,-8.87 10.07,-13.12 0.16,0.33 0.16,0.33 1,2 -1.43,2.6 -1.43,2.6 -3.44,5.62 -0.66,1.01 -1.31,2.01 -1.99,3.04 -0.52,0.77 -1.04,1.55 -1.57,2.34 1.65,-1.04 3.29,-2.08 4.94,-3.12 0.5,-0.32 0.5,-0.32 3.06,-1.94 2.52,-1.63 4.94,-3.32 7.38,-5.06 5.66,-3.8 14.74,-9.56 21.62,-6.88 z"
     fill="#f8f8f8"
     id="path5" />
  <path
     d="m 385.99999,103.56522 c 7.29,4.07 14.51,8.22 21.56,12.69 1.12,0.7 2.23,1.41 3.38,2.13 7.73,5.5 7.73,5.5 8.56,9.74 0.5,2.44 0.5,2.44 2.69,4.06 4.37,3.69 6.85,8.03 8.81,13.38 0.28,3.41 0.19,6.65 0.01,10.06 -0.01,2.85 0.27,4.27 1.55,6.75 1.82,4.03 1.72,7.06 0.44,11.19 -1.93,4.2 -3.68,7.29 -7.81,9.5 -0.72,0.17 -1.45,0.33 -2.19,0.5 1.4,3.87 3.24,7.06 5.5,10.5 3.74,5.88 6.82,12.02 9.81,18.31 0.42,0.89 0.84,1.77 1.28,2.68 1.83,3.91 3.5,7.72 4.8,11.83 1.59,4.35 4.24,6.3 8.05,8.74 0.63,0.42 1.26,0.84 1.91,1.28 1.28,0.84 2.56,1.68 3.86,2.51 1.55,0.99 3.06,2.04 4.57,3.1 9.73,6.38 21.11,8.98 32.22,12.05 0,0.33 0,0.66 0,1 -6.44,0.11 -12.63,-0.04 -19,-1 0,0.33 0,0.66 0,1 -6.16,0.51 -9.96,-0.98 -15.31,-3.94 -0.75,-0.4 -1.5,-0.81 -2.27,-1.23 -6.29,-3.52 -11.27,-7.82 -16.42,-12.83 -1.94,-1.69 -3.9,-3.36 -5.88,-5 -0.88,-0.74 -1.76,-1.49 -2.67,-2.25 -2.45,-1.75 -2.45,-1.75 -6.45,-2.75 -0.33,2.97 -0.66,5.94 -1,9 -0.33,0 -0.66,0 -1,0 -0.08,-1.79 -0.14,-3.58 -0.19,-5.38 -0.03,-0.99 -0.07,-1.99 -0.1,-3.02 0.09,-0.86 0.19,-1.72 0.29,-2.6 0.99,-0.66 1.98,-1.32 3,-2 -0.31,-0.2 -0.31,-0.2 -1.89,-1.21 -2.45,-2.08 -2.96,-3.35 -3.86,-6.4 -0.14,-0.45 -0.14,-0.45 -0.85,-2.73 -0.13,-0.47 -0.13,-0.47 -0.84,-2.85 -2.02,-6.81 -4.08,-13.17 -8.56,-18.81 -0.33,-0.16 -0.33,-0.16 -2,-1 -0.33,2.64 -0.66,5.28 -1,8 -0.33,-0.16 -0.33,-0.16 -2,-1 -0.62,-3.06 -0.62,-3.06 -1,-6 -1.32,-0.33 -2.64,-0.66 -4,-1 -0.03,4.29 -0.05,8.58 -0.06,12.88 -0.01,0.61 -0.01,0.61 -0.03,3.7 0,1.17 0,2.34 -0.01,3.54 0,1.08 -0.01,2.15 -0.01,3.27 0.11,2.61 0.11,2.61 1.11,4.61 0.07,1.71 0.08,3.42 0.06,5.12 -0.01,0.92 -0.02,1.83 -0.02,2.76 -0.02,0.7 -0.03,1.4 -0.04,2.12 -0.33,0 -0.66,0 -1,0 0,-2.97 0,-5.94 0,-9 -0.66,0 -1.32,0 -2,0 -0.11,0.6 -0.22,1.21 -0.33,1.83 -0.91,4.56 -1.76,7.5 -4.67,11.17 -0.69,3.25 -0.69,3.25 -1,6 -0.99,0 -1.98,0 -3,0 0,-0.66 0,-1.32 0,-2 -0.47,0.33 -0.47,0.33 -2.88,2 -3.12,2 -3.12,2 -5.12,2 -0.51,-6.36 -0.51,-6.36 2,-9.53 3.17,-4.5 2.46,-9.62 2.31,-14.91 -0.01,-1.06 -0.03,-2.12 -0.04,-3.21 -0.15,-8.14 -0.54,-16.25 -1.27,-24.35 0.99,0 1.98,0 3,0 0.29,-11.12 -0.12,-22.18 -0.75,-33.28 -0.08,-1.51 -0.16,-3.02 -0.24,-4.53 -0.43,-7.9 -0.96,-15.52 -3.01,-23.19 -2.87,2.68 -4.34,5.44 -6,9 -1.26,-2.97 -0.98,-4.07 0.12,-7.19 1.88,-2.81 1.88,-2.81 4.57,-3.69 0.76,-0.04 1.52,-0.08 2.31,-0.12 -0.12,-1.75 -0.12,-1.75 -1,-4 -3.06,-2.25 -3.06,-2.25 -6,-4 2,-1 2,-1 5,-1 -0.9,-0.61 -1.81,-1.23 -2.74,-1.86 -1.19,-0.82 -2.38,-1.64 -3.57,-2.45 -0.6,-0.41 -1.19,-0.81 -1.81,-1.23 -2.86,-1.96 -5.56,-3.87 -7.88,-6.46 4.32,0.51 8.03,1.2 12,3 0,-0.66 0,-1.32 0,-2 5.75,1.88 5.75,1.88 8,3 -0.66,-1.65 -1.32,-3.3 -2,-5 z"
     fill="#f8f8f8"
     id="path6" />
  <path
     d="m 616.99999,45.56522 c 9.22,3.26 15.49,7.2 20,16 1.05,1.76 2.12,3.51 3.19,5.25 0.94,1.58 1.87,3.17 2.81,4.75 0.54,0.85 1.08,1.7 1.64,2.58 2,3.57 2.16,6.5 1.36,10.42 -1.76,4.46 -3.82,8.730003 -6,13.000003 0.48,-0.72 0.96,-1.44 1.46,-2.19 0.63,-0.93 1.26,-1.85 1.92,-2.810003 0.62,-0.93 1.25,-1.86 1.89,-2.81 0.57,-0.72 1.14,-1.45 1.73,-2.19 0.66,0 1.32,0 2,0 -0.62,9.470003 -5.16,16.48 -11.38,23.38 -0.22,0.24 -0.22,0.24 -1.35,1.51 -3.42,3.64 -6.81,5.95 -11.27,8.11 -0.66,-0.33 -1.32,-0.66 -2,-1 2.97,-2.31 5.94,-4.62 9,-7 -1.07,0.55 -2.15,1.11 -3.25,1.68 -1.44,0.73 -2.88,1.46 -4.31,2.2 -0.35,0.18 -0.35,0.18 -2.14,1.1 -0.35,0.18 -0.35,0.18 -2.12,1.07 -0.63,0.33 -1.26,0.65 -1.92,0.99 -3.01,1.28 -6.1,2.1 -9.26,2.96 0,-0.81 0,-1.62 0.01,-2.46 0.02,-7.66 0.03,-15.33 0.04,-22.989997 0.01,-3.94 0.01,-7.880003 0.03,-11.820003 0.01,-3.81 0.01,-7.62 0.01,-11.42 0.01,-1.45 0.01,-2.9 0.02,-4.35 0,-2.03 0,-4.07 0,-6.11 0.01,-1.15 0.01,-2.31 0.01,-3.5 -0.12,-3.35 -0.12,-3.35 -0.69,-7.13 -0.43,-3.22 -0.43,-3.22 0.63,-5.66 2.77,-2.23 4.43,-1.86 7.94,-1.56 z"
     fill="#171817"
     id="path7" />
  <path
     d="m 332.99999,120.56522 c 7.3,3.18 14.61,7.26 18.32,14.61 1,2.78 1.85,5.56 2.68,8.39 0.67,1.78 1.35,3.55 2.06,5.31 0.33,0.82 0.66,1.64 0.99,2.48 0.95,2.21 0.95,2.21 2.64,5.4 3.85,8.26 4.01,22.12 1.32,30.86 -4.22,8.16 -11.94,16.14 -19.01,21.95 -1.32,0.38 -2.66,0.72 -4,1 -0.03,-0.52 -0.03,-0.52 -0.15,-3.17 -1.73,-35.72 -1.73,-35.72 -3.64,-52.84 -1.2,-11.33 -1.34,-22.62 -1.21,-33.99 z"
     fill="#171817"
     id="path8" />
  <path
     d="m 322.99999,111.56522 c 0.99,0 1.98,0 3,0 -0.33,15.84 -0.66,31.68 -1,48 -0.33,0 -0.66,0 -1,0 -0.99,-8.58 -1.98,-17.16 -3,-26 0,8.27 0.11,16.21 0.84,24.39 0.09,1.03 0.17,2.06 0.26,3.12 0.28,3.25 0.56,6.49 0.84,9.74 3.32,38.78 3.32,38.78 3.06,53.75 0.66,0 1.32,0 2,0 0,-8.91 0,-17.82 0,-27 0.33,0 0.66,0 1,0 0.06,0.64 0.11,1.27 0.17,1.92 0.25,2.9 0.51,5.8 0.77,8.7 0.08,1 0.17,2 0.26,3.03 0.36,4.01 0.72,7.93 1.46,11.88 0.46,3.34 -0.71,4.82 -2.66,7.47 -3.43,-3.03 -5.63,-5.94 -7.88,-9.94 -1.89,-3.3 -3.49,-5.61 -6.56,-7.87 -5.24,-4.13 -8.19,-10.05 -10.56,-16.19 -0.33,-3.23 0.26,-5.86 1,-9 0.21,-2.02 0.4,-4.04 0.56,-6.06 0.07,-0.82 0.07,-0.82 0.44,-4.94 -0.99,3.96 -1.98,7.92 -3,12 -0.33,0 -0.66,0 -1,0 -0.6,-12.86 0.91,-24.52 4,-37 0.2,-0.83 0.41,-1.67 0.62,-2.53 3.02,-12.02 7.36,-28.45 16.38,-37.47 z"
     fill="#171817"
     id="path9" />
  <path
     d="m 660.99999,89.56522 c 9.59,7.080003 18.8,19.79 23,31 -0.36,2.3 -0.36,2.3 -1,4 -0.99,-1.32 -1.98,-2.64 -3,-4 0.31,0.41 0.31,0.41 1.88,2.5 0.7,0.82 1.4,1.65 2.12,2.5 0.66,0 1.32,0 2,0 0,0.99 0,1.98 0,3 -2.27,0.23 -2.27,0.23 -5,0 -1.91,-1.61 -1.91,-1.61 -3.62,-3.75 -0.57,-0.7 -1.14,-1.39 -1.73,-2.11 -1.57,-2.03 -3.12,-4.08 -4.65,-6.14 0.43,0.63 0.87,1.25 1.31,1.9 0.56,0.82 1.12,1.63 1.69,2.48 0.56,0.81 1.11,1.62 1.69,2.46 1.31,2.16 1.31,2.16 1.31,4.16 -0.66,-0.23 -1.33,-0.46 -2.01,-0.69 -0.88,-0.29 -1.77,-0.58 -2.68,-0.87 -0.87,-0.29 -1.74,-0.58 -2.63,-0.88 -2.97,-0.62 -4.77,-0.28 -7.68,0.44 -2.33,0.04 -4.67,0.04 -7,0 -2.43,0 -4.63,0.5 -7,1 1.01,-2.55 2.04,-5.08 3.11,-7.61 0.35,-0.85 0.71,-1.7 1.08,-2.58 0.36,-0.86 0.73,-1.72 1.1,-2.6 0.71,-2.21 0.71,-2.21 -0.29,-4.21 0.56,-2.38 0.56,-2.38 1.44,-5.12 0.28,-0.92 0.57,-1.83 0.87,-2.76 0.23,-0.7 0.45,-1.4 0.69,-2.119997 0.66,0 1.32,0 2,0 0.33,1.979997 0.66,3.959997 1,5.999997 0.66,-5.28 1.32,-10.559997 2,-16 z"
     fill="#171817"
     id="path11" />
  <path
     d="m 481.99999,106.56522 c 4.08,7.56 8.12,15.14 12,22.81 0.58,1.14 1.15,2.28 1.75,3.46 1.25,2.73 1.25,2.73 1.25,4.73 -7.57,-0.63 -15.1,-1.47 -22.62,-2.5 -0.5,-0.07 -0.5,-0.07 -3.01,-0.39 -0.47,-0.07 -0.47,-0.07 -2.85,-0.39 -0.84,-0.12 -1.69,-0.23 -2.56,-0.35 -1.96,-0.37 -1.96,-0.37 -2.96,-1.37 -0.07,-1.52 -0.08,-3.04 -0.06,-4.56 0.01,-0.83 0.02,-1.66 0.02,-2.51 0.02,-0.63 0.03,-1.27 0.04,-1.93 1.98,0.66 3.96,1.32 6,2 -0.8,-0.72 -1.61,-1.44 -2.44,-2.19 -2.66,-2.92 -3.01,-4.05 -3.56,-7.81 12.84,-9 12.84,-9 19,-9 z"
     fill="#171817"
     id="path12" />
  <path
     d="m 397.99999,129.56522 c 7.42,5.76 11.06,13.19 14,22 -0.31,-1.42 -0.62,-2.83 -0.94,-4.25 -0.17,-0.79 -0.35,-1.58 -0.52,-2.39 -0.49,-2.13 -1,-4.25 -1.54,-6.36 5.42,3.41 7.79,8.17 10,14 0.99,6.18 -0.99,11.63 -4,17 -3.2,3.93 -5.93,5.74 -10.88,6.94 -1.03,0.02 -2.06,0.04 -3.12,0.06 -4.77,-4.77 -2.38,-23.78 -2.56,-30.75 -0.05,-1.58 -0.09,-3.17 -0.13,-4.75 -0.11,-3.83 -0.21,-7.67 -0.31,-11.5 z"
     fill="#171817"
     id="path13" />
  <path
     d="m 249.99999,154.56522 c -0.58,4.4 -1.7,8.01 -3.5,12.06 -1.62,3.66 -2.86,6.98 -3.5,10.94 1.65,-0.66 3.3,-1.32 5,-2 0,11.55 0,23.1 0,35 -2.49,-3.32 -3.91,-5.77 -5.49,-9.52 -0.45,-1.08 -0.91,-2.15 -1.38,-3.27 -0.48,-1.14 -0.95,-2.28 -1.44,-3.46 -0.49,-1.16 -0.98,-2.33 -1.48,-3.53 -10.21,-24.51 -10.21,-24.51 -10.21,-29.22 0.82,0.33 0.82,0.33 5,2 0,-0.66 0,-1.32 0,-2 0,-0.66 0,-1.32 0,-2 2.08,-0.84 4.16,-1.67 6.25,-2.5 1.16,-0.46 2.32,-0.93 3.52,-1.41 3.23,-1.09 3.23,-1.09 7.23,-1.09 z"
     fill="#171817"
     id="path14" />
  <path
     d="m 289.99999,139.56522 c 1.32,0 2.64,0 4,0 0.5,1.96 1,3.92 1.5,5.88 0.14,0.54 0.14,0.54 0.84,3.3 0.66,2.82 0.66,2.82 0.66,4.82 -0.66,0 -1.32,0 -2,0 0,6.93 0,13.86 0,21 -0.33,0 -0.66,0 -1,0 -0.17,0.82 -0.17,0.82 -1,5 -0.33,0 -0.66,0 -1,0 -3.9,-27.81 -3.9,-27.81 -3,-39 0.33,-0.33 0.66,-0.66 1,-1 z"
     fill="#bdbdbd"
     id="path15" />
  <path
     d="m 163.99999,233.56522 c 0.99,0.66 1.98,1.32 3,2 0.19,3.12 0.19,3.12 0,6 -0.66,0.33 -1.32,0.66 -2,1 0,-1.98 0,-3.96 0,-6 -8.99,-0.96 -15.43,1.1 -23,6 -2.47,2.24 -4.14,4.22 -6,7 -0.99,0.33 -1.98,0.66 -3,1 -1.84,2.17 -3.53,4.32 -5.19,6.62 -0.48,0.67 -0.96,1.33 -1.46,2.01 -4.82,6.76 -8.67,13.94 -12.35,21.37 -0.33,-0.66 -0.66,-1.32 -1,-2 1.08,-2.76 2.22,-5.39 3.5,-8.06 0.36,-0.77 0.73,-1.54 1.1,-2.34 2.48,-5.1 5.22,-9.52 9.05,-13.74 1.35,-1.86 1.35,-1.86 1.85,-4.47 0.17,-0.79 0.33,-1.58 0.5,-2.39 3.06,-1.94 3.06,-1.94 4.98,-2.9 2.16,-1.18 3.93,-2.55 5.83,-4.1 7.18,-5.45 15.11,-8.43 24.19,-7 z"
     fill="#e0e0e0"
     id="path16" />
  <path
     d="m 192.99999,161.56522 c 2.29,4.47 3.49,7.28 2.05,12.3 -1.6,6.13 -1.52,12.4 -1.67,18.7 -0.04,1.25 -0.08,2.5 -0.12,3.79 -0.1,3.07 -0.18,6.14 -0.26,9.21 -2.16,-3.24 -2.28,-4.34 -2.41,-8.11 -0.04,-0.98 -0.08,-1.96 -0.12,-2.97 -0.03,-1.03 -0.06,-2.05 -0.09,-3.11 -0.04,-1.03 -0.08,-2.07 -0.12,-3.14 -0.1,-2.55 -0.18,-5.11 -0.26,-7.67 -0.66,0.99 -1.32,1.98 -2,3 -1.32,-0.33 -2.64,-0.66 -4,-1 2.23,-7.44 5.4,-14.12 9,-21 z"
     fill="#dddddd"
     id="path17" />
  <path
     d="m 254.99999,209.56522 c 2.19,3.29 3.47,6.63 4.81,10.31 0.26,0.71 0.52,1.42 0.79,2.14 0.54,1.47 1.08,2.93 1.61,4.4 0.74,2.02 1.5,4.05 2.26,6.07 0.44,1.2 0.89,2.4 1.34,3.64 0.4,1.08 0.8,2.15 1.21,3.26 1.04,3.39 1.57,6.66 1.98,10.18 -4.17,-3.56 -6.25,-7.88 -8.69,-12.69 -0.79,-1.54 -1.59,-3.09 -2.38,-4.63 -0.18,-0.34 -0.18,-0.34 -1.05,-2.07 -0.88,-1.61 -0.88,-1.61 -1.88,-2.61 -0.09,-1.34 -0.11,-2.69 -0.1,-4.04 0.01,-0.8 0.01,-1.61 0.01,-2.45 0.01,-0.85 0.02,-1.7 0.03,-2.57 0,-0.86 0.01,-1.71 0.01,-2.59 0.01,-2.12 0.03,-4.23 0.05,-6.35 z"
     fill="#171817"
     id="path18" />
  <path
     d="m 272.99999,170.56522 c 2.22,2.86 4.13,5.79 5.96,8.92 0.56,0.95 1.11,1.89 1.68,2.86 0.29,0.49 0.29,0.49 1.74,2.97 1.13,1.93 2.26,3.87 3.39,5.8 0.55,0.92 1.09,1.85 1.65,2.8 1.82,3.06 3.74,6.04 5.72,9 0.86,1.65 0.86,1.65 0.86,4.65 -6.69,-2.06 -8.82,-7.11 -12,-13 -2.15,-4.61 -4.09,-9.29 -6,-14 -0.56,-1.24 -1.11,-2.49 -1.67,-3.73 -1.33,-3.27 -1.33,-3.27 -1.33,-6.27 z"
     fill="#171817"
     id="path19" />
  <path
     d="m 772.99999,102.56522 c -0.99,0.99 -1.98,1.98 -3,3 0.66,0.33 1.32,0.66 2,1 -0.33,0.99 -0.66,1.98 -1,3 -0.66,0 -1.32,0 -2,0 -0.72,0.72 -1.44,1.44 -2.19,2.19 -2.6,2.6 -5.16,4.53 -8.16,6.61 -2.11,1.53 -3.88,3.29 -5.65,5.2 0.95,-2.64 1.83,-4.78 3.56,-7 1.44,-2 1.44,-2 1.69,-4.38 1.35,-4.73 5.71,-7.38 9.79,-9.86 1.96,-0.76 1.96,-0.76 4.96,0.24 z"
     fill="#e8e8e7"
     id="path20" />
  <path
     d="m 319.99999,126.56522 c 0.33,0 0.66,0 1,0 0.09,0.73 0.17,1.46 0.26,2.22 0.39,3.32 0.78,6.64 1.18,9.97 0.13,1.15 0.27,2.3 0.41,3.48 0.13,1.12 0.26,2.23 0.4,3.37 0.12,1.02 0.24,2.05 0.36,3.1 0.36,2.65 0.83,5.24 1.39,7.86 0.33,0 0.66,0 1,0 0,4.95 0,9.9 0,15 -0.33,0 -0.66,0 -1,0 -0.33,-1.98 -0.66,-3.96 -1,-6 -0.66,1.32 -1.32,2.64 -2,4 -1.47,-14.38 -2.28,-28.54 -2,-43 z"
     fill="#e4e4e4"
     id="path21" />
  <path
     d="m 124.99999,232.56522 c 0.66,0.33 1.32,0.66 2,1 -2.46,1.65 -4.92,3.29 -7.38,4.94 -0.69,0.47 -1.39,0.93 -2.11,1.42 -0.67,0.45 -1.34,0.89 -2.03,1.35 -0.62,0.42 -1.24,0.83 -1.88,1.26 -3.95,2.54 -6.96,2.1 -11.6,2.03 0,-0.99 0,-1.98 0,-3 4.38,-1.76 8.77,-3.52 13.16,-5.26 1.52,-0.61 3.03,-1.23 4.55,-1.84 1.74,-0.69 3.51,-1.31 5.29,-1.9 z"
     fill="#171817"
     id="path22" />
  <path
     d="m 784.99999,94.565223 c 4.1,3.83 5.87,6.089997 6.27,11.789997 0,1.42 0,2.85 -0.02,4.27 0.01,0.72 0.02,1.44 0.02,2.18 -0.01,3.79 -0.12,5.54 -2.27,8.76 -0.33,-4.62 -0.66,-9.24 -1,-14 -3.96,0 -7.92,0 -12,0 3.9,-2.93 5.38,-3.48 10,-4 -0.33,-2.97 -0.66,-5.939997 -1,-8.999997 z"
     fill="#171817"
     id="path23" />
  <path
     d="m 206.99999,136.56522 c 0.66,0 1.32,0 2,0 1.04,5.05 1.1,9.87 1,15 -2.64,0 -5.28,0 -8,0 0,-4.2 0.73,-6.03 2.5,-9.75 0.46,-0.98 0.93,-1.97 1.41,-2.98 0.36,-0.75 0.72,-1.5 1.09,-2.27 z"
     fill="#171817"
     id="path24" />
  <path
     d="m 731.99999,72.56522 c 0.66,0.33 1.32,0.66 2,1 -0.28,1.12 -0.55,2.25 -0.84,3.4 -0.37,1.51 -0.73,3.03 -1.1,4.54 -0.19,0.78 -0.38,1.56 -0.57,2.36 -0.95,4 -1.7,7.83 -1.93,11.950003 -0.67,4.489997 -2.06,5.969997 -5.56,8.749997 0.33,-6.749997 1.63,-12.9 3.44,-19.38 0.21,-0.78 0.43,-1.56 0.66,-2.37 1.03,-3.63 2.14,-6.9 3.9,-10.25 z"
     fill="#e8e8e8"
     id="path25" />
  <path
     d="m 217.99999,169.56522 c 2.11,2.11 2.48,3.06 3.29,5.84 0.22,0.76 0.44,1.51 0.66,2.28 0.22,0.79 0.45,1.57 0.67,2.38 0.23,0.79 0.46,1.57 0.7,2.38 1.68,5.83 1.68,5.83 1.68,8.12 0.66,0.33 1.32,0.66 2,1 -0.33,3.63 -0.66,7.26 -1,11 -4.2,-6.3 -5.29,-14.03 -6.69,-21.38 -0.06,-0.34 -0.06,-0.34 -0.4,-2.09 -0.59,-3.26 -0.91,-6.2 -0.91,-9.53 z"
     fill="#363637"
     id="path26" />
  <path
     d="m 205.99999,122.56522 c 2.14,3.48 2.41,5.94 2,10 -1.26,3.09 -2.86,5.97 -4.5,8.88 -0.43,0.78 -0.86,1.56 -1.3,2.37 -1.06,1.92 -2.12,3.84 -3.2,5.75 -1.19,-3.58 -0.7,-4.74 0.4,-8.29 0.31,-1.02 0.63,-2.05 0.95,-3.1 0.17,-0.53 0.17,-0.53 1.03,-3.23 0.32,-1.08 0.66,-2.16 1,-3.26 2.47,-7.97 2.47,-7.97 3.62,-9.12 z"
     fill="#323231"
     id="path27" />
  <path
     d="m 327.99999,197.56522 c 0.33,0 0.66,0 1,0 0.06,0.64 0.11,1.27 0.17,1.92 0.25,2.9 0.51,5.8 0.77,8.7 0.08,1 0.17,2 0.26,3.03 0.36,4.01 0.72,7.93 1.46,11.88 0.46,3.34 -0.71,4.82 -2.66,7.47 -0.99,-0.66 -1.98,-1.32 -3,-2 0,-1.32 0,-2.64 0,-4 0.66,0 1.32,0 2,0 0,-8.91 0,-17.82 0,-27 z"
     fill="#333333"
     id="path28" />
  <path
     d="m 247.99999,39.56522 c 0,3.86 -1.22,4.91 -3.56,7.94 -5.7,7.64 -11.5,15.58 -13.44,25.06 -0.33,0 -0.66,0 -1,0 0.21,-12.47 7.72,-23.1 16,-32 0.66,-0.33 1.32,-0.66 2,-1 z"
     fill="#dededf"
     id="path29" />
  <path
     d="m 290.99999,142.56522 c 0.66,0 1.32,0 2,0 2.5,9.95 2.19,19.83 2,30 -4.47,-4.47 -3.93,-14.68 -4.12,-20.88 0,-3.04 0.03,-6.08 0.12,-9.12 z"
     fill="#171817"
     id="path30" />
  <path
     d="m 238.99999,46.56522 c 0.66,0 1.32,0 2,0 -1.46,2.97 -3.01,5.86 -4.62,8.75 -0.45,0.8 -0.9,1.6 -1.36,2.42 -0.33,0.61 -0.67,1.21 -1.02,1.83 -0.99,-0.33 -1.98,-0.66 -3,-1 -0.7,0.72 -1.4,1.44 -2.12,2.19 -0.91,0.93 -1.82,1.85 -2.76,2.81 -0.9,0.93 -1.8,1.86 -2.74,2.81 -2.38,2.19 -2.38,2.19 -4.38,2.19 1.62,-4.16 4.67,-6.9 7.81,-9.94 0.52,-0.51 1.05,-1.02 1.58,-1.55 1.04,-1.02 2.07,-2.03 3.11,-3.04 2.18,-2.14 4.34,-4.3 6.5,-6.47 0.33,-0.33 0.66,-0.66 1,-1 z"
     fill="#171817"
     id="path31" />
  <path
     d="m 717.99999,117.56522 c -0.38,0.48 -0.75,0.97 -1.14,1.47 -3.22,4.22 -6.17,8.49 -8.88,13.06 -0.16,0.24 -0.16,0.24 -0.98,1.47 -0.33,0 -0.66,0 -1,0 -0.42,-6.09 -0.07,-9.12 4,-14 3.23,-2.15 4.28,-2.2 8,-2 z"
     fill="#171817"
     id="path32" />
  <path
     d="m 302.99999,164.56522 c 0.99,0 1.98,0 3,0 1.34,4.58 0.61,8.55 -0.31,13.12 -0.13,0.72 -0.26,1.44 -0.4,2.17 -0.67,3.46 -1.31,5.74 -3.29,8.71 -0.03,-2.69 -0.05,-5.37 -0.06,-8.06 -0.01,-0.75 -0.02,-1.51 -0.03,-2.28 -0.02,-4.67 0.31,-9.06 1.09,-13.66 z"
     fill="#171817"
     id="path33" />
  <path
     d="m 40,227.56522 c 0.27,0.06 0.27,0.06 1.63,0.37 10.34,2.1 20.87,2.77 31.369999,3.63 -0.33,0.66 -0.66,1.32 -1,2 -8.299999,0.43 -15.809999,0.16 -23.879999,-1.88 -0.69,-0.17 -1.39,-0.34 -2.1,-0.52 -1.7,-0.46 -3.36,-1.02 -5.02,-1.6 -0.33,-0.66 -0.66,-1.32 -1,-2 z"
     fill="#d5d5d4"
     id="path34" />
  <path
     d="m 714.99999,114.56522 c 0,0.66 0,1.32 0,2 1.32,0 2.64,0 4,0 -0.33,0.66 -0.66,1.32 -1,2 -1.09,0.08 -2.19,0.17 -3.31,0.25 -3.69,0.75 -3.69,0.75 -6.13,3.25 -1.94,4.36 -1.94,7.81 -1.56,12.5 -0.66,0.33 -1.32,0.66 -2,1 -0.14,-0.74 -0.29,-1.49 -0.44,-2.25 -0.56,-2.75 -0.56,-2.75 -1.31,-4.69 -0.41,-3.42 0.92,-5.2 2.75,-8.06 5.9,-6 5.9,-6 9,-6 z"
     fill="#c8c8c8"
     id="path35" />
  <path
     d="m 144.99999,232.56522 c 0.33,1.32 0.66,2.64 1,4 -1.66,1.34 -3.33,2.67 -5,4 -0.71,0.59 -1.43,1.18 -2.16,1.79 -0.77,0.63 -1.54,1.25 -2.34,1.9 -0.73,0.6 -1.46,1.2 -2.22,1.82 -2.47,1.61 -4.38,2.11 -7.28,2.49 3.75,-3.86 7.69,-7.37 11.81,-10.81 0.6,-0.5 1.2,-1.01 1.81,-1.52 1.46,-1.23 2.92,-2.45 4.38,-3.67 z"
     fill="#171817"
     id="path36" />
  <path
     d="m 872.99999,258.56522 c 4.51,0.53 7.35,2.37 11,5 -0.66,0.66 -1.32,1.32 -2,2 2.64,1.98 5.28,3.96 8,6 -0.33,0.16 -0.33,0.16 -2,1 -6.33,-2.66 -10.96,-7.59 -15,-13 0,-0.33 0,-0.66 0,-1 z"
     fill="#575757"
     id="path37" />
  <path
     d="m 278.99999,188.56522 c 2.26,2.91 4.23,5.9 6.12,9.06 0.26,0.43 0.26,0.43 1.58,2.6 1.3,2.34 1.3,2.34 2.3,5.34 0.99,0.33 1.98,0.66 3,1 -0.33,0.99 -0.66,1.98 -1,3 -4.65,-4.37 -7.82,-9.15 -11.23,-14.55 -0.29,-0.4 -0.29,-0.4 -1.77,-2.45 -0.66,0 -1.32,0 -2,0 0,-0.99 0,-1.98 0,-3 0.99,-0.33 1.98,-0.66 3,-1 z"
     fill="#dfdfdf"
     id="path38" />
  <path
     d="m 192.99999,161.56522 c 1.78,3.55 0.05,7.23 -0.9,10.93 -1.57,4.39 -3.79,6.84 -7.1,10.07 -1,-2 -1,-2 -0.4,-3.86 0.34,-0.74 0.67,-1.48 1.02,-2.24 0.18,-0.4 0.18,-0.4 1.09,-2.43 0.38,-0.83 0.77,-1.67 1.17,-2.53 0.37,-0.84 0.75,-1.68 1.14,-2.55 2.82,-6.23 2.82,-6.23 3.98,-7.39 z"
     fill="#171817"
     id="path39" />
  <path
     d="m 770.99999,84.56522 c 3.96,2.94 6.85,6.22 10,10.000003 0.93,0.68 1.86,1.36 2.81,2.06 2.19,1.94 2.19,1.94 2.5,4.689997 -0.05,0.37 -0.05,0.37 -0.31,2.25 -1.49,0.5 -1.49,0.5 -9,3 -0.66,-0.66 -1.32,-1.32 -2,-2 2.64,-0.66 5.28,-1.32 8,-2 -1.07,-4.259997 -1.8,-5.119997 -4.88,-7.999997 -2.66,-2.520003 -5.09,-4.940003 -7.12,-8.000003 0,-0.66 0,-1.32 0,-2 z"
     fill="#d9d9d8"
     id="path40" />
  <path
     d="m 765.99999,106.56522 c 0.66,0.33 1.32,0.66 2,1 -1.33,4.16 -2.84,6.03 -6.38,8.56 -3.15,2.29 -5.92,4.63 -8.62,7.44 1.41,-4.26 3.45,-6.92 6.5,-10.19 0.79,-0.86 1.59,-1.72 2.41,-2.6 1.34,-1.42 2.71,-2.83 4.09,-4.21 z"
     fill="#171817"
     id="path41" />
  <path
     d="m 305.99999,169.56522 c 0.33,0 0.66,0 1,0 0.25,7.93 -0.29,15.24 -2,23 -0.66,-0.66 -1.32,-1.32 -2,-2 -0.66,0.33 -1.32,0.66 -2,1 0,-3.96 0,-7.92 0,-12 0.33,0 0.66,0 1,0 0.33,1.98 0.66,3.96 1,6 0.99,-5.28 1.98,-10.56 3,-16 z"
     fill="#aaaaaa"
     id="path42" />
  <path
     d="m 289.99999,152.56522 c 2.32,3.48 2.62,6.4 3.06,10.44 0.95,8.15 0.95,8.15 1.94,11.56 -0.33,0 -0.66,0 -1,0 -0.33,1.65 -0.66,3.3 -1,5 -0.33,0 -0.66,0 -1,0 -1.53,-9.12 -2.28,-17.74 -2,-27 z"
     fill="#d1d1d1"
     id="path43" />
  <path
     d="m 322.99999,151.56522 c 0.33,0 0.66,0 1,0 0.33,1.65 0.66,3.3 1,5 0.33,0 0.66,0 1,0 0,4.95 0,9.9 0,15 -0.33,0 -0.66,0 -1,0 -0.33,-1.98 -0.66,-3.96 -1,-6 -0.66,1.32 -1.32,2.64 -2,4 -0.22,-2.44 -0.43,-4.87 -0.62,-7.31 -0.07,-0.69 -0.13,-1.38 -0.2,-2.09 -0.3,-3.86 -0.39,-5.29 1.82,-8.6 z"
     fill="#b1b1b1"
     id="path44" />
  <path
     d="m 94.999994,295.56522 c 0.33,0.66 0.66,1.32 1,2 0.66,0.33 1.32,0.66 2,1 -0.27,0.92 -0.53,1.84 -0.8,2.78 -1.84,6.38 -3.65,12.76 -5.2,19.22 -0.33,0 -0.659995,0 -0.999995,0 -0.22,-6.02 0.51,-11.18 1.999995,-17 0.19,-0.77 0.38,-1.55 0.58,-2.35 0.46,-1.88 0.94,-3.77 1.42,-5.65 z"
     fill="#c8c8c8"
     id="path45" />
  <path
     d="m 354.99999,142.56522 c 6.27,5.57 9.3,11.64 10,20 -2.8,-3.42 -4.74,-7.18 -6.69,-11.12 -0.16,-0.32 -0.16,-0.32 -0.97,-1.92 -2.34,-4.71 -2.34,-4.71 -2.34,-6.96 z"
     fill="#171817"
     id="path46" />
  <path
     d="m 262.99999,232.56522 c 2,1 2,1 3.11,4.09 0.35,1.27 0.71,2.54 1.08,3.85 0.36,1.26 0.73,2.53 1.1,3.84 0.71,3.22 0.71,3.22 -0.29,5.22 -6.6,-9.82 -6.6,-9.82 -5.56,-15.31 0.18,-0.56 0.37,-1.12 0.56,-1.69 z"
     fill="#171817"
     id="path47" />
  <path
     d="m 264.99999,229.56522 c 2.09,3.13 3.05,5.8 4.19,9.38 0.36,1.12 0.73,2.24 1.1,3.39 0.71,3.23 0.63,5.09 -0.29,8.23 -0.66,-0.33 -1.32,-0.66 -2,-1 -0.56,-1.75 -0.56,-1.75 -1,-4 -0.16,-0.81 -0.32,-1.61 -0.49,-2.44 -0.17,-0.85 -0.34,-1.69 -0.51,-2.56 -0.57,-2.39 -1.15,-4.77 -1.73,-7.15 -0.27,-1.85 -0.27,-1.85 0.73,-3.85 z"
     fill="#d6d6d6"
     id="path48" />
  <path
     d="m 97.999994,279.56522 c 1.32,0 2.639996,0 3.999996,0 -1,2 -1,2 -2.829996,4.23 -2.28,2.91 -4.09,5.88 -5.92,9.08 -0.61,1.07 -1.23,2.14 -1.859995,3.24 -0.23,0.4 -0.23,0.4 -1.39,2.45 -1,-3 -1,-3 0.62,-6.54 0.74,-1.37 1.489995,-2.73 2.259995,-4.08 0.18,-0.35 0.18,-0.35 1.14,-2.11 2.79,-5.08 2.79,-5.08 3.98,-6.27 z"
     fill="#d9d9d9"
     id="path49" />
  <path
     d="m 851.99999,100.56522 c 1.52,4.57 -0.48,7.77 -2.19,12.12 -0.15,0.42 -0.15,0.42 -0.92,2.54 -0.31,0.8 -0.62,1.59 -0.93,2.41 -0.28,0.73 -0.56,1.46 -0.85,2.21 -1.11,1.72 -1.11,1.72 -3.23,2.47 -0.62,0.08 -1.24,0.16 -1.88,0.25 1.53,-5.1 3.71,-9.66 6.12,-14.38 0.38,-0.73 0.75,-1.47 1.13,-2.23 0.92,-1.8 1.83,-3.59 2.75,-5.39 z"
     fill="#dcdcdc"
     id="path50" />
  <path
     d="m 272.99999,170.56522 c 2.51,3.21 4.65,6.57 6.75,10.06 0.63,1.05 1.27,2.09 1.92,3.16 1.33,2.78 1.33,2.78 0.33,5.78 -0.99,-0.33 -1.98,-0.66 -3,-1 -1.21,-2.46 -2.23,-4.82 -3.19,-7.38 -0.27,-0.68 -0.54,-1.37 -0.82,-2.07 -1.16,-2.99 -1.99,-5.32 -1.99,-8.55 z"
     fill="#171817"
     id="path51" />
  <path
     d="m 712.99999,165.56522 c 2.84,-0.06 4.41,-0.05 7,1 2.7,2.76 4.87,5.79 7,9 -0.33,0.17 -0.33,0.17 -2,1 0,-0.66 0,-1.32 0,-2 -0.99,0 -1.98,0 -3,0 -2.44,-2.25 -2.44,-2.25 -5,-5 -0.76,-0.76 -1.53,-1.53 -2.31,-2.31 -0.56,-0.56 -1.12,-1.12 -1.69,-1.69 z"
     fill="#171817"
     id="path52" />
  <path
     d="m 859.99999,53.56522 c 0.33,0.66 0.66,1.32 1,2 -1.4,2.75 -1.4,2.75 -3.38,6 -0.64,1.07 -1.29,2.14 -1.96,3.25 -0.55,0.91 -1.09,1.81 -1.66,2.75 -0.33,0.66 -0.66,1.32 -1,2 -1.32,0 -2.64,0 -4,0 1.45,-4.36 3.68,-7.32 6.62,-10.81 0.82,-0.98 1.64,-1.95 2.48,-2.96 0.63,-0.74 1.25,-1.47 1.9,-2.23 z"
     fill="#dddddd"
     id="path53" />
  <path
     d="m 99.999994,280.56522 c 0.329996,0.66 0.659996,1.32 0.999996,2 -0.91,2.6 -1.869996,5.09 -2.939996,7.62 -0.29,0.71 -0.58,1.42 -0.88,2.15 -0.72,1.74 -1.45,3.49 -2.18,5.23 -0.99,-0.33 -1.98,-0.66 -3,-1 0.56,-4.35 2.15,-7.18 4.56,-10.81 0.64,-0.98 1.28,-1.95 1.94,-2.96 0.25,-0.37 0.25,-0.37 1.5,-2.23 z"
     fill="#171817"
     id="path54" />
  <path
     d="m 98.999994,257.56522 c 1,1.69 1,1.69 1,4 -1.48,2.24 -3.16,4.02 -5,6 -0.33,-0.66 -0.66,-1.32 -1,-2 1.44,-2.62 1.44,-2.62 3,-5 -3.3,0 -6.599995,0 -9.999995,0 3.37,-3.37 7.489995,-4.5 11.999995,-3 z"
     fill="#dbdcdb"
     id="path55" />
  <path
     d="m 857.99999,248.56522 c 4,4 8,8 12,12 -0.99,0.33 -1.98,0.66 -3,1 -0.33,0.66 -0.66,1.32 -1,2 -2,-2 -2,-2 -2.88,-4.25 -1.12,-2.75 -1.12,-2.75 -3.24,-5.94 -1.88,-2.81 -1.88,-2.81 -1.88,-4.81 z"
     fill="#333332"
     id="path56" />
  <path
     d="m 126.99999,233.56522 c -3.96,2.64 -7.92,5.28 -12,8 -0.66,-0.33 -1.32,-0.66 -2,-1 0,-0.66 0,-1.32 0,-2 -0.66,-0.33 -1.32,-0.66 -2,-1 2.29,-0.86 4.58,-1.72 6.88,-2.56 0.65,-0.25 1.3,-0.5 1.97,-0.75 4.92,-1.8 4.92,-1.8 7.15,-0.69 z"
     fill="#171817"
     id="path57" />
  <path
     d="m 515.99999,91.56522 c -2.97,1.15 -2.97,1.15 -18,7.000003 -0.66,-0.99 -1.32,-1.98 -2,-3 2.58,-0.87 5.16,-1.72 7.75,-2.560003 0.73,-0.25 1.46,-0.5 2.21,-0.75 0.71,-0.23 1.42,-0.46 2.15,-0.69 0.32,-0.11 0.32,-0.11 1.97,-0.65 1.92,-0.35 1.92,-0.35 5.92,0.65 z"
     fill="#d0d0d0"
     id="path58" />
  <path
     d="m 890.99999,49.56522 c -5.61,2.64 -11.22,5.28 -17,8 0,-0.66 0,-1.32 0,-2 -0.66,-0.33 -1.32,-0.66 -2,-1 2.41,-1.03 4.83,-2.05 7.25,-3.06 0.68,-0.3 1.36,-0.59 2.07,-0.9 3.94,-1.62 5.41,-2.11 9.68,-1.04 z"
     fill="#d1d1d0"
     id="path59" />
  <path
     d="m 205.99999,122.56522 c 2.09,3.4 2.18,6.05 2,10 -1.65,0.66 -3.3,1.32 -5,2 0.86,-8.57 0.86,-8.57 3,-12 z"
     fill="#171817"
     id="path60" />
  <path
     d="m 300.99999,211.56522 c -0.33,1.98 -0.66,3.96 -1,6 -1.32,0 -2.64,0 -4,0 -0.66,-1.98 -1.32,-3.96 -2,-6 3.01,-0.93 3.87,-1.04 7,0 z"
     fill="#171817"
     id="path61" />
  <path
     d="m 784.99999,94.565223 c 1.32,1.65 2.64,3.3 4,5 -0.33,0.33 -0.66,0.659997 -1,0.999997 -0.37,2.33 -0.7,4.66 -1,7 -3.63,0 -7.26,0 -11,0 3.9,-2.93 5.38,-3.48 10,-4 -0.33,-2.97 -0.66,-5.939997 -1,-8.999997 z"
     fill="#171817"
     id="path62" />
  <path
     d="m 470.99999,83.12772 c 2.82,2.02 4.27,4.47 6,7.44 0,0.66 0,1.32 0,2 -3.83,-1.56 -6.14,-4.07 -9,-7 -0.99,-0.66 -1.98,-1.32 -3,-2 2.3,-0.82 3.63,-1.11 6,-0.44 z"
     fill="#171817"
     id="path63" />
  <path
     d="m 739.99999,166.56522 c 0.33,0 0.66,0 1,0 0.53,2.73 1.05,5.46 1.56,8.19 0.15,0.77 0.31,1.54 0.46,2.33 0.76,4.12 1.22,7.37 -0.02,11.48 -0.33,0 -0.66,0 -1,0 -2.34,-7.69 -3.46,-14.04 -2,-22 z"
     fill="#171817"
     id="path64" />
  <path
     d="m 290.99999,142.56522 c 0.66,0 1.32,0 2,0 1.17,4.84 1.93,9.73 0,14.44 -0.33,0.51 -0.66,1.03 -1,1.56 -1.14,-3.42 -1.1,-6.09 -1.06,-9.69 0.01,-1.18 0.02,-2.36 0.02,-3.57 0.02,-0.91 0.03,-1.81 0.04,-2.74 z"
     fill="#171817"
     id="path65" />
  <path
     d="m 731.99999,72.56522 c 0.66,0.33 1.32,0.66 2,1 -1.32,5.61 -2.64,11.22 -4,17 -2.33,-4.65 -2.09,-6.04 -1,-11 0.89,-2.41 1.91,-4.67 3,-7 z"
     fill="#c2c3c2"
     id="path66" />
  <path
     d="m 115.99999,230.56522 c -9.34,4.63 -9.34,4.63 -14.62,3.25 -1.12,-0.41 -2.229996,-0.83 -3.379996,-1.25 0,-0.33 0,-0.66 0,-1 2.249996,-0.36 4.499996,-0.72 6.749996,-1.06 1.25,-0.2 2.51,-0.4 3.8,-0.6 2.95,-0.29 4.71,-0.33 7.45,0.66 z"
     fill="#171817"
     id="path67" />
  <path
     d="m 254.99999,209.56522 c 2.46,3.69 3.01,6.7 4,11 -0.99,0 -1.98,0 -3,0 0,2.31 0,4.62 0,7 -0.33,0 -0.66,0 -1,0 0,-5.94 0,-11.88 0,-18 z"
     fill="#414140"
     id="path68" />
  <path
     d="m 372.99999,178.56522 c 3,3 3,3 3.19,5.69 -0.06,0.76 -0.13,1.52 -0.19,2.31 -1.98,0.33 -3.96,0.66 -6,1 0.99,-2.97 1.98,-5.94 3,-9 z"
     fill="#171817"
     id="path69" />
  <path
     d="m 352.99999,95.565223 c 0.66,0.33 1.32,0.66 2,1 -0.7,0.68 -1.4,1.36 -2.12,2.06 -3.16,3.149997 -6.02,6.529997 -8.88,9.939997 -0.33,-0.99 -0.66,-1.98 -1,-3 1.07,-1.97 1.07,-1.97 2.69,-4.06 0.52,-0.69 1.04,-1.39 1.57,-2.099997 1.83,-1.93 3.25,-2.94 5.74,-3.84 z"
     fill="#4b4b4a"
     id="path70" />
  <path
     d="m 695.99999,239.56522 c 0.99,0.66 1.98,1.32 3,2 -2.64,3.3 -5.28,6.6 -8,10 -0.33,-0.66 -0.66,-1.32 -1,-2 1.21,-2.38 1.21,-2.38 2.94,-5.12 0.28,-0.46 0.28,-0.46 1.71,-2.76 0.45,-0.7 0.89,-1.4 1.35,-2.12 z"
     fill="#e5e5e5"
     id="path71" />
  <path
     d="m 261.99999,162.56522 c 2.46,3.69 3.01,6.7 4,11 -0.33,0.17 -0.33,0.17 -2,1 -0.66,1.32 -1.32,2.64 -2,4 0,-5.28 0,-10.56 0,-16 z"
     fill="#171817"
     id="path72" />
  <path
     d="m 354.99999,144.56522 c 1.99,2.98 3.54,5.98 5.12,9.19 0.54,1.08 1.08,2.17 1.64,3.29 0.41,0.83 0.82,1.66 1.24,2.52 -0.99,0 -1.98,0 -3,0 -1.03,-1.93 -2.05,-3.87 -3.06,-5.81 -0.29,-0.54 -0.29,-0.54 -1.73,-3.27 -1.21,-2.92 -1.21,-2.92 -0.21,-5.92 z"
     fill="#dfdfdf"
     id="path73" />
  <path
     d="m 66,251.56522 c 0.66,0.33 1.32,0.66 2,1 0,0.99 0,1.98 0,3 -1.43,0.7 -2.87,1.38 -4.31,2.06 -0.4,0.19 -0.4,0.19 -2.43,1.16 -2.26,0.78 -2.26,0.78 -5.26,-0.22 3.3,-2.31 6.6,-4.62 10,-7 z"
     fill="#e6e6e6"
     id="path74" />
  <path
     d="m 632.99999,130.56522 c -1.32,2.31 -2.64,4.62 -4,7 -0.66,-0.33 -1.32,-0.66 -2,-1 0,-0.99 0,-1.98 0,-3 -3.3,-0.33 -6.6,-0.66 -10,-1 0,-0.33 0,-0.66 0,-1 1.73,-0.17 3.46,-0.34 5.19,-0.5 0.96,-0.09 1.92,-0.19 2.92,-0.28 2.64,-0.2 5.24,-0.26 7.89,-0.22 z"
     fill="#353535"
     id="path75" />
  <path
     d="m 871.99999,58.56522 c 0.66,1.32 1.32,2.64 2,4 -1.45,0.7 -2.91,1.38 -4.38,2.06 -0.81,0.39 -1.62,0.77 -2.46,1.16 -0.71,0.26 -1.42,0.52 -2.16,0.78 -0.66,-0.33 -1.32,-0.66 -2,-1 1.12,-0.98 2.25,-1.96 3.38,-2.94 0.31,-0.27 0.31,-0.27 1.89,-1.65 1.73,-1.41 1.73,-1.41 3.73,-2.41 z"
     fill="#171817"
     id="path76" />
  <path
     d="m 196.99999,52.56522 c 1.65,0 3.3,0 5,0 0,2.64 0,5.28 0,8 -1.98,-1.65 -3.96,-3.3 -6,-5 0.33,-0.99 0.66,-1.98 1,-3 z"
     fill="#171817"
     id="path77" />
  <path
     d="m 599.99999,24.56522 c 1.27,0.93 2.54,1.87 3.81,2.81 0.71,0.52 1.42,1.05 2.15,1.58 1.83,1.44 3.44,2.93 5.04,4.61 -0.66,0 -1.32,0 -2,0 -0.33,0.66 -0.66,1.32 -1,2 -1.34,-1.45 -2.67,-2.91 -4,-4.38 -0.74,-0.81 -1.49,-1.62 -2.25,-2.46 -1.75,-2.16 -1.75,-2.16 -1.75,-4.16 z"
     fill="#dad9d9"
     id="path78" />
  <path
     d="m 331.99999,233.56522 c 0.33,0 0.66,0 1,0 0.05,1.77 0.09,3.54 0.12,5.31 0.03,0.99 0.05,1.97 0.08,2.99 -0.2,2.7 -0.2,2.7 -2.2,5.7 -0.14,-1.09 -0.29,-2.19 -0.44,-3.31 -0.56,-3.69 -0.56,-3.69 -1.56,-6.69 1.38,-2.19 1.38,-2.19 3,-4 z"
     fill="#171817"
     id="path79" />
  <path
     d="m 385.06249,125.50272 c 0.48,0.01 0.48,0.01 2.94,0.06 0,0.66 0,1.32 0,2 -0.74,0 -1.49,0 -2.25,0 -3.32,1.21 -3.55,1.99 -5.07,5.06 -0.58,1.31 -1.14,2.62 -1.68,3.94 -1.06,-3.26 -1.08,-3.82 0.37,-7.18 2.2,-3.81 2.2,-3.81 5.69,-3.88 z"
     fill="#dbdbdb"
     id="path80" />
  <path
     d="m 99.999994,286.56522 c 0.949996,2.17 1.139996,3.56 0.399996,5.82 -0.759996,1.75 -1.579996,3.47 -2.399996,5.18 -0.66,0 -1.32,0 -2,0 0.46,-3.47 0.89,-6.67 2,-10 0.66,-0.33 1.32,-0.66 2,-1 z"
     fill="#e8e9e9"
     id="path81" />
  <path
     d="m 310.99999,255.56522 c 0.66,0.33 1.32,0.66 2,1 -1.47,3.11 -3.2,5.9 -5.12,8.75 -0.27,0.4 -0.27,0.4 -1.64,2.42 -0.41,0.61 -0.82,1.21 -1.24,1.83 -0.33,-0.66 -0.66,-1.32 -1,-2 1.43,-2.82 1.43,-2.82 3.44,-6.12 0.33,-0.55 0.33,-0.55 1.99,-3.33 0.52,-0.84 1.04,-1.68 1.57,-2.55 z"
     fill="#c9c9c9"
     id="path82" />
  <path
     d="m 687.99999,199.56522 c 5.54,0.62 5.54,0.62 7.88,2.56 0.18,0.24 0.18,0.24 1.12,1.44 -3.7,0.95 -6.3,0.95 -10,0 0.33,-1.32 0.66,-2.64 1,-4 z"
     fill="#6e6e6d"
     id="path83" />
  <path
     d="m 733.99999,101.56522 c 1.65,0.33 3.3,0.66 5,1 -3.11,3.29 -6.02,5.84 -10,8 1.25,-3.46 2.68,-6.15 5,-9 z"
     fill="#171817"
     id="path84" />
  <path
     d="m 474.99999,99.565223 c 0.99,0.33 1.98,0.659997 3,0.999997 0,0.66 0,1.32 0,2 -1.29,0.67 -2.58,1.34 -3.88,2 -0.71,0.37 -1.43,0.74 -2.17,1.12 -1.95,0.88 -1.95,0.88 -3.95,0.88 1.35,-4.05 3.35,-4.96 7,-6.999997 z"
     fill="#171817"
     id="path85" />
  <path
     d="m 294.99999,94.565223 c 5,2 10,4 15,5.999997 0,0.99 0,1.98 0,3 -12.76,-4.529997 -12.76,-4.529997 -15,-8.999997 z"
     fill="#d5d5d4"
     id="path86" />
  <path
     d="m 682.99999,202.56522 c 0.33,0.66 0.66,1.32 1,2 -0.63,1.68 -1.3,3.35 -2,5 0,0.66 0,1.32 0,2 -0.99,0.33 -1.98,0.66 -3,1 -0.66,-1.65 -1.32,-3.3 -2,-5 1.98,-1.65 3.96,-3.3 6,-5 z"
     fill="#171817"
     id="path87" />
  <path
     d="m 769.99999,101.56522 c 0.99,0.33 1.98,0.66 3,1 -0.5,0.5 -0.5,0.5 -3,3 0.66,0.33 1.32,0.66 2,1 -0.33,0.99 -0.66,1.98 -1,3 -0.66,0 -1.32,0 -2,0 -0.66,0.66 -1.32,1.32 -2,2 0.11,-1.48 0.24,-2.96 0.38,-4.44 0.06,-0.82 0.13,-1.64 0.21,-2.49 0.13,-0.69 0.27,-1.37 0.41,-2.07 0.66,-0.33 1.32,-0.66 2,-1 z"
     fill="#d7d7d7"
     id="path88" />
  <path
     d="m 646.99999,87.56522 c 0.66,0 1.32,0 2,0 -0.12,2.75 -0.12,2.75 -1,6.000003 -3.06,2.38 -3.06,2.38 -6,4 0.62,-4 2.6,-6.800003 5,-10.000003 z"
     fill="#171817"
     id="path89" />
  <path
     d="m 663.99999,79.56522 c 2.48,2.2 3.61,4.06 4.69,7.19 0.25,0.71 0.5,1.43 0.76,2.17 0.18,0.54 0.36,1.08 0.55,1.64 -0.66,0 -1.32,0 -2,0 -0.33,0.66 -0.66,1.32 -1,2 -0.51,-1.6 -1,-3.21 -1.5,-4.81 -0.28,-0.9 -0.56,-1.79 -0.84,-2.71 -0.66,-2.48 -0.66,-2.48 -0.66,-5.48 z"
     fill="#dddddd"
     id="path90" />
  <path
     d="m 769.99999,214.56522 c 0.99,0 1.98,0 3,0 -0.75,4.75 -0.75,4.75 -3,7 -1.32,0 -2.64,0 -4,0 0.33,-0.99 0.66,-1.98 1,-3 0.66,0 1.32,0 2,0 0.33,-1.32 0.66,-2.64 1,-4 z"
     fill="#e3e3e3"
     id="path91" />
  <path
     d="m 187.99999,171.56522 c 0.99,1.32 1.98,2.64 3,4 -1.98,2.31 -3.96,4.62 -6,7 -0.33,-0.66 -0.66,-1.32 -1,-2 0.78,-2.16 0.78,-2.16 1.94,-4.62 0.38,-0.82 0.76,-1.64 1.15,-2.48 0.3,-0.63 0.6,-1.25 0.91,-1.9 z"
     fill="#171817"
     id="path92" />
  <path
     d="m 714.99999,114.56522 c 0,0.66 0,1.32 0,2 1.32,0 2.64,0 4,0 -0.33,0.66 -0.66,1.32 -1,2 -2.32,0.39 -4.66,0.72 -7,1 -1.34,0.31 -2.68,0.63 -4,1 4.62,-6 4.62,-6 8,-6 z"
     fill="#d9d9da"
     id="path93" />
  <path
     d="m 733.99999,85.56522 c 0.33,0 0.66,0 1,0 0,2.97 0,5.94 0,9.000003 1.65,0 3.3,0 5,0 -1.27,2.54 -2.47,2.85 -5,4 -0.33,0.17 -0.33,0.17 -2,1 -0.03,-2.15 -0.05,-4.29 -0.06,-6.44 -0.01,-1.190003 -0.03,-2.390003 -0.04,-3.620003 0.1,-2.94 0.1,-2.94 1.1,-3.94 z"
     fill="#3e3e3e"
     id="path94" />
  <path
     d="m 247.99999,39.56522 c 0,3.61 -0.82,4.41 -3,7.19 -0.56,0.71 -1.11,1.43 -1.69,2.17 -0.43,0.54 -0.86,1.08 -1.31,1.64 -0.66,-0.66 -1.32,-1.32 -2,-2 0.95,-1.32 1.91,-2.63 2.88,-3.94 0.53,-0.73 1.06,-1.46 1.61,-2.21 1.51,-1.85 1.51,-1.85 3.51,-2.85 z"
     fill="#d0d0d0"
     id="path95" />
  <path
     d="m 302.99999,164.56522 c 0.99,0 1.98,0 3,0 1.16,4.26 0.76,7.68 0,12 -2.5,-2.5 -2.36,-3.67 -2.62,-7.12 -0.08,-0.92 -0.15,-1.83 -0.23,-2.76 -0.05,-0.7 -0.1,-1.4 -0.15,-2.12 z"
     fill="#171817"
     id="path96" />
  <path
     d="m 322.99999,133.56522 c 0.66,0 1.32,0 2,0 0,3.63 0,7.26 0,11 -0.99,0 -1.98,0 -3,0 -0.03,-1.46 -0.05,-2.92 -0.06,-4.38 -0.01,-0.81 -0.03,-1.62 -0.04,-2.46 0.1,-2.16 0.1,-2.16 1.1,-4.16 z"
     fill="#171817"
     id="path97" />
  <path
     d="m 236.99999,24.56522 c 1.32,0.33 2.64,0.66 4,1 -3.17,3.54 -5.17,5.59 -10,6 1.98,-2.31 3.96,-4.62 6,-7 z"
     fill="#e3e3e3"
     id="path98" />
  <path
     d="m 321.99999,245.56522 c 0.33,1.32 0.66,2.64 1,4 -2.25,2.75 -2.25,2.75 -5,5 -0.99,0 -1.98,0 -3,0 2.31,-2.97 4.62,-5.94 7,-9 z"
     fill="#171817"
     id="path99" />
  <path
     d="m 192.99999,163.56522 c 2.39,2.39 2.68,3.68 3,7 -0.33,0.5 -0.33,0.5 -2,3 -0.66,0 -1.32,0 -2,0 0.33,-3.3 0.66,-6.6 1,-10 z"
     fill="#e5e5e5"
     id="path100" />
  <path
     d="m 203.99999,137.56522 c 0.99,0.33 1.98,0.66 3,1 -1.32,2.97 -2.64,5.94 -4,9 -0.99,-0.66 -1.98,-1.32 -3,-2 1.32,-2.64 2.64,-5.28 4,-8 z"
     fill="#e4e3e3"
     id="path101" />
  <path
     d="m 462.99999,123.56522 c 0.99,0.33 1.98,0.66 3,1 -0.33,2.31 -0.66,4.62 -1,7 1.65,0 3.3,0 5,0 0,0.33 0,0.66 0,1 -2.31,0 -4.62,0 -7,0 0,-2.97 0,-5.94 0,-9 z"
     fill="#171817"
     id="path102" />
  <path
     d="m 321.99999,125.56522 c 0.99,0 1.98,0 3,0 0,2.64 0,5.28 0,8 -0.66,0 -1.32,0 -2,0 -0.33,0.66 -0.66,1.32 -1,2 0,-3.3 0,-6.6 0,-10 z"
     fill="#171817"
     id="path103" />
  <path
     d="m 679.99999,115.56522 c 2.52,1.97 2.99,2.97 3.69,6.19 0.1,0.93 0.2,1.85 0.31,2.81 -1.32,-1.32 -2.64,-2.64 -4,-4 -0.33,0.17 -0.33,0.17 -2,1 0.88,-4.88 0.88,-4.88 2,-6 z"
     fill="#171817"
     id="path104" />
  <path
     d="m 738.99999,102.56522 c 0.66,0.33 1.32,0.66 2,1 -1.07,1.2 -2.15,2.39 -3.25,3.56 -0.3,0.33 -0.3,0.33 -1.83,2.01 -0.63,0.47 -1.27,0.94 -1.92,1.43 -1.32,-0.33 -2.64,-0.66 -4,-1 2.97,-2.31 5.94,-4.62 9,-7 z"
     fill="#e2e1e2"
     id="path105" />
  <path
     d="m 643.99999,86.56522 c 0.99,0.99 1.98,1.98 3,3 -2.31,2.97 -4.62,5.940003 -7,9.000003 0,-3.24 0.66,-4.79 2,-7.690003 0.37,-0.81 0.74,-1.61 1.12,-2.45 0.29,-0.61 0.58,-1.23 0.88,-1.86 z"
     fill="#cdcdcd"
     id="path106" />
  <path
     d="m 873.99999,55.56522 c -1.05,2.62 -1.65,3.79 -4.12,5.25 -0.62,0.25 -1.24,0.5 -1.88,0.75 -0.66,-0.99 -1.32,-1.98 -2,-3 4.62,-3 4.62,-3 8,-3 z"
     fill="#eaeaea"
     id="path107" />
  <path
     d="m 362.99999,203.56522 c 0.33,0.99 0.66,1.98 1,3 -0.33,0.66 -0.66,1.32 -1,2 1.32,0.33 2.64,0.66 4,1 -1.49,0.5 -1.49,0.5 -9,3 1.65,-2.97 3.3,-5.94 5,-9 z"
     fill="#171817"
     id="path108" />
  <path
     d="m 630.99999,111.56522 c 0.66,0.33 1.32,0.66 2,1 -1.49,1.15 -1.49,1.15 -9,7 -0.99,-0.66 -1.98,-1.32 -3,-2 1.62,-1.03 3.25,-2.05 4.88,-3.06 0.9,-0.57 1.8,-1.14 2.74,-1.73 0.39,-0.2 0.39,-0.2 2.38,-1.21 z"
     fill="#d0d0d0"
     id="path109" />
  <path
     d="m 238.99999,46.56522 c 0.66,0 1.32,0 2,0 -1.53,3.44 -3.6,6.12 -6,9 -0.99,-0.66 -1.98,-1.32 -3,-2 0.78,-0.6 1.57,-1.2 2.38,-1.81 2.62,-2.19 2.62,-2.19 4.62,-5.19 z"
     fill="#323231"
     id="path110" />
  <path
     d="m 838.99999,226.56522 c 3.67,3.28 5.69,6.72 8,11 -3.45,-1.15 -4.72,-2.19 -7,-5 -0.75,-3.25 -0.75,-3.25 -1,-6 z"
     fill="#171817"
     id="path111" />
  <path
     d="m 663.99999,82.56522 c 2.13,3.19 2.5,5.27 3,9 -1.65,-1.65 -3.3,-3.3 -5,-5 0.66,-1.32 1.32,-2.64 2,-4 z"
     fill="#171817"
     id="path112" />
  <path
     d="m 857.99999,58.56522 c 0.33,0.99 0.66,1.98 1,3 0.66,0.33 1.32,0.66 2,1 -0.99,0.82 -0.99,0.82 -6,5 -0.66,-0.33 -1.32,-0.66 -2,-1 1.65,-2.64 3.3,-5.28 5,-8 z"
     fill="#171817"
     id="path113" />
  <path
     d="m 399.99999,219.56522 c 0.66,0 1.32,0 2,0 0,2.97 0,5.94 0,9 -1.32,-0.33 -2.64,-0.66 -4,-1 0.66,-2.64 1.32,-5.28 2,-8 z"
     fill="#171817"
     id="path114" />
  <path
     d="m 360.99999,152.56522 c 0.66,0 1.32,0 2,0 2.43,6.29 2.43,6.29 1,10 -3.22,-5.18 -3.22,-5.18 -4,-7 0.33,-0.99 0.66,-1.98 1,-3 z"
     fill="#171817"
     id="path115" />
  <path
     d="m 677.99999,123.56522 c 0.47,0.17 0.47,0.17 2.88,1 3.12,1 3.12,1 5.12,1 0,0.99 0,1.98 0,3 -4.52,0.37 -4.52,0.37 -6.81,-1.38 -1.19,-1.62 -1.19,-1.62 -1.19,-3.62 z"
     fill="#171817"
     id="path116" />
  <path
     d="m 730.99999,89.56522 c 0.66,0.33 1.32,0.66 2,1 -1.19,3.380003 -2.28,5.650003 -5,8.000003 0.59,-6.150003 0.59,-6.150003 1,-8.000003 0.66,-0.33 1.32,-0.66 2,-1 z"
     fill="#3b3b3a"
     id="path117" />
  <path
     d="m 461.99999,83.56522 c 2.88,0.31 2.88,0.31 6,1 0.66,0.99 1.32,1.98 2,3 -3.2,0 -5.09,-0.74 -8,-2 -0.33,0.99 -0.66,1.98 -1,3 -0.33,-0.66 -0.66,-1.32 -1,-2 0.66,-0.99 1.32,-1.98 2,-3 z"
     fill="#d4d4d4"
     id="path118" />
  <path
     d="m 791.99999,233.56522 c 0.66,0 1.32,0 2,0 -1.09,3.78 -1.91,6.47 -5,9 0.5,-3.73 0.87,-5.81 3,-9 z"
     fill="#dfdfdf"
     id="path119" />
  <path
     d="m 757.99999,114.56522 c 0.99,0.33 1.98,0.66 3,1 -0.95,1.15 -1.91,2.29 -2.88,3.44 -0.53,0.64 -1.06,1.27 -1.61,1.93 -1.51,1.63 -1.51,1.63 -3.51,2.63 1.25,-3.46 2.68,-6.15 5,-9 z"
     fill="#3f3f3f"
     id="path120" />
  <path
     d="m 859.99999,53.56522 c 0.33,0.66 0.66,1.32 1,2 -1,1.95 -1,1.95 -2.44,4.12 -0.47,0.73 -0.94,1.45 -1.43,2.2 -0.37,0.55 -0.75,1.11 -1.13,1.68 -0.66,-0.33 -1.32,-0.66 -2,-1 1.53,-3.44 3.6,-6.12 6,-9 z"
     fill="#c8c8c9"
     id="path121" />
  <path
     d="m 703.99999,236.56522 c 0,3 0,3 -1.31,4.39 -1.57,1.2 -3.13,2.41 -4.69,3.61 0.35,-3.26 1.02,-4.02 3.56,-6.25 0.81,-0.58 1.61,-1.15 2.44,-1.75 z"
     fill="#171817"
     id="path122" />
  <path
     d="m 263.99999,224.56522 c 1.65,1.65 3.3,3.3 5,5 -0.66,1.32 -1.32,2.64 -2,4 -0.99,-2.97 -1.98,-5.94 -3,-9 z"
     fill="#171817"
     id="path123" />
  <path
     d="m 300.99999,212.56522 c 0.66,0.66 1.32,1.32 2,2 -0.99,1.98 -1.98,3.96 -3,6 -1.32,0 -2.64,0 -4,0 0,-0.66 0,-1.32 0,-2 0.99,-0.33 1.98,-0.66 3,-1 1.19,-2.56 1.19,-2.56 2,-5 z"
     fill="#e4e5e5"
     id="path124" />
  <path
     d="m 726.99999,100.56522 c 0.33,0.66 0.66,1.32 1,2 -0.78,1.95 -0.78,1.95 -1.94,4.12 -0.38,0.73 -0.76,1.45 -1.15,2.2 -0.3,0.55 -0.6,1.11 -0.91,1.68 -0.33,0 -0.66,0 -1,0 0,-2.31 0,-4.62 0,-7 0.66,0 1.32,0 2,0 0.66,-0.99 1.32,-1.98 2,-3 z"
     fill="#171817"
     id="path125" />
  <path
     d="m 223.99999,49.56522 c 1.1,3.31 1.05,5.66 0,9 -0.99,0.66 -1.98,1.32 -3,2 0.55,-3.95 1.39,-7.35 3,-11 z"
     fill="#171817"
     id="path126" />
  <path
     d="m 837.99999,224.56522 c 2.5,2.5 2.36,3.67 2.62,7.12 0.08,0.92 0.15,1.83 0.23,2.76 0.03,0.35 0.03,0.35 0.15,2.12 -2.29,-2.29 -2.52,-3.46 -3.19,-6.56 -0.18,-0.81 -0.36,-1.61 -0.54,-2.44 -0.09,-0.66 -0.18,-1.32 -0.27,-2 0.33,-0.33 0.66,-0.66 1,-1 z"
     fill="#cbcccb"
     id="path127" />
  <path
     d="m 714.99999,168.56522 c 3.65,1.25 4.78,1.67 7,5 -3.69,-0.5 -5.6,-1.1 -8,-4 0.33,-0.33 0.66,-0.66 1,-1 z"
     fill="#d8d8d8"
     id="path128" />
  <path
     d="m 314.56249,85.50272 c 0.4,0.01 0.4,0.01 2.44,0.06 0.33,0.66 0.66,1.32 1,2 -1.65,0 -3.3,0 -5,0 -0.66,1.32 -1.32,2.64 -2,4 -0.05,-1.66 -0.04,-3.33 0,-5 1,-1 1,-1 3.56,-1.06 z"
     fill="#d9d9d9"
     id="path129" />
  <path
     d="m 451.99999,211.56522 c 0.33,0 0.66,0 1,0 0.66,3.63 1.32,7.26 2,11 -0.33,0.17 -0.33,0.17 -2,1 -1.26,-2.52 -1.1,-4.31 -1.06,-7.12 0.01,-0.92 0.02,-1.83 0.02,-2.76 0.02,-0.7 0.03,-1.4 0.04,-2.12 z"
     fill="#505150"
     id="path130" />
  <path
     d="m 278.99999,188.56522 c 0.99,1.32 1.98,2.64 3,4 -0.99,0.66 -1.98,1.32 -3,2 -2,-2 -2,-2 -3,-5 0.99,-0.33 1.98,-0.66 3,-1 z"
     fill="#c7c7c6"
     id="path131" />
  <path
     d="m 631.99999,114.56522 c 0,0.66 0,1.32 0,2 -5.27,3.22 -5.27,3.22 -7,4 -0.66,-0.33 -1.32,-0.66 -2,-1 1.12,-0.84 2.25,-1.67 3.38,-2.5 0.62,-0.46 1.25,-0.93 1.89,-1.41 1.73,-1.09 1.73,-1.09 3.73,-1.09 z"
     fill="#3f403f"
     id="path132" />
</svg>
